<?xml version="1.0" encoding="utf-8"?>
<!-- Generator: Adobe Illustrator 17.0.0, SVG Export Plug-In . SVG Version: 6.00 Build 0)  -->
<!DOCTYPE svg PUBLIC "-//W3C//DTD SVG 1.1//EN" "http://www.w3.org/Graphics/SVG/1.1/DTD/svg11.dtd">
<svg version="1.1" xmlns="http://www.w3.org/2000/svg" xmlns:xlink="http://www.w3.org/1999/xlink" x="0px" y="0px" width="320px"
	 height="320px" viewBox="0 0 320 320" enable-background="new 0 0 320 320" xml:space="preserve">
<g id="Layer_3">
	
		<text transform="matrix(1 0 0 1 29.4541 271.0752)" fill="#FFFFFF" font-family="'KozMinPro-Heavy-83pv-RKSJ-H'" font-size="130.5464">襲來</text>
	
		<text transform="matrix(1 0 0 1 26.8588 94.9807)" fill="#FCEE21" font-family="'KozMinPro-Heavy-83pv-RKSJ-H'" font-size="66.5704">非常事態</text>
	
		<text transform="matrix(1 0 0 1 35.7209 142.6979)" fill="#FFFFFF" font-family="'KozMinPr6N-Heavy-83pv-RKSJ-H'" font-size="33.1412">新･兩岸監督條例</text>
</g>
<g id="Layer_2">
	<rect width="320" height="320"/>
</g>
<g id="Layer_1">
	<g>
		<path fill="#FFFFFF" d="M150.202,254.627c-0.521,0.914-1.305,1.437-2.871,1.437c-0.522,0-1.306-0.131-2.089-0.262
			c-5.613,1.437-13.185,2.35-20.625,2.872v0.131c10.443,3.524,22.322,5.222,33.679,6.135v1.566
			c-7.18,2.089-11.618,8.225-13.445,17.102c-21.278-6.919-36.942-17.102-45.428-37.987c-4.96,3.002-10.704,5.482-17.231,7.571
			v11.879c8.616-0.261,18.015-0.522,27.544-0.914v1.697c-10.573,3.916-26.369,8.615-50.648,14.882
			c-0.914,1.696-2.351,2.741-3.786,3.002l-8.354-18.015c4.047,0,9.921-0.13,17.101-0.261v-7.832
			c-9.79,1.827-20.364,3.002-31.329,3.655l-0.522-1.958c18.145-3.525,33.94-9.269,44.384-16.188H34.284l-0.653-2.089h51.303v-8.615
			c-2.48,1.437-6.267,2.48-11.618,3.133c0-8.615-1.175-10.965-6.788-12.14v-1.566h6.657c0.783,0,0.783-0.392,0.783-4.047h-16.84
			v12.923c0,1.045-4.96,4.438-13.184,4.438h-2.872v-44.774l17.753,6.657h13.837l6.005-7.832H33.762l-0.652-2.089h19.189v-0.131
			c-2.351-0.261-4.569-1.436-5.875-4.177c0.392-1.566,0.653-3.264,0.653-4.961c0-1.696-0.262-3.394-0.783-4.699l0.652-0.261h-9.529
			l-0.652-2.089h19.972v-11.487l21.018,1.958c-0.262,1.436-1.175,2.219-4.047,2.61v6.919h3.002l7.049-8.877l13.185,9.138
			c-0.913,1.566-2.741,1.828-6.005,1.828H74.359l15.534,3.785c-0.392,1.566-1.697,2.22-4.96,2.22
			c-3.264,2.35-8.225,5.613-12.532,8.224h7.963l6.527-7.311l12.531,7.702c-0.914,1.436-2.741,1.697-5.874,1.697H79.32l16.317,11.487
			c-0.783,1.044-2.611,2.219-5.353,2.741v17.492c0,3.002-0.131,5.613-1.436,7.832l12.793,1.175
			c-1.045-2.088-1.306-5.222-1.306-9.921v-60.439l21.147,1.697c-0.262,1.566-1.175,2.48-4.438,3.002v4.569h15.795l7.311-8.877
			l14.098,9.138c-0.913,1.566-2.871,1.828-6.005,1.828h-31.198v8.093h16.709l5.482-7.18l15.795,10.443
			c-0.521,0.783-1.696,1.566-3.524,1.958v5.222c-0.13,0.914-5.352,3.264-10.182,4.047l9.138,5.613
			c-0.914,1.436-2.741,1.697-5.744,1.697h-27.674v6.526h16.97l5.482-6.266l10.835,6.657c-0.914,1.437-2.741,1.697-5.743,1.697
			h-27.544v6.657h16.97l5.482-6.266l10.966,6.657c-0.914,1.437-2.741,1.697-5.744,1.697h-27.674v1.827
			c0,3.655,0.261,3.655,4.568,3.655h17.754c4.308,0,6.135,0,9.79-3.916h0.783l0.652,3.264c5.222,1.696,6.396,2.219,6.396,4.308
			c0,4.308-2.088,6.266-12.009,6.919l10.573,7.049c-0.914,1.566-2.61,1.827-6.136,1.827h-14.881L150.202,254.627z M69.008,187.139
			c0.521-4.047,1.175-9.921,1.436-14.229H48.513c9.66,2.48,12.924,5.874,12.924,8.746c0,2.741-3.003,4.96-6.527,5.352v0.131H69.008z
			 M73.968,199.148h-16.84v7.31h16.84V199.148z M57.128,215.727h16.84v-7.18h-16.84V215.727z M103.209,243.14l-1.566,1.045
			c4.177,4.96,9.79,8.876,16.187,11.748c4.96-3.655,10.443-8.877,13.576-12.793H103.209z M116.784,181.134
			c-1.566,1.044-7.962,2.741-13.575,2.741l13.967,5.222h17.623v-7.963H116.784z M137.148,234.394h-17.492
			c-6.918,0-11.356-0.261-14.229-1.175c-0.522,0.131-1.044,0.131-1.566,0.262v7.57h27.674L137.148,234.394z M134.016,198.757
			l4.178-4.83h-3.395v-2.741h-17.753v7.571H134.016z"/>
		<path fill="#FFFFFF" d="M234.017,217.946c1.436,3.394,3.264,6.526,5.353,9.529c4.568-9.008,7.57-23.236,8.224-37.727l22.583,5.092
			c-0.522,1.696-1.566,2.741-4.96,3.002c-1.697,4.83-3.655,9.269-5.875,13.185c16.188,2.61,21.67,9.138,21.67,14.751
			c0,5.222-4.569,9.529-9.66,9.529c-2.48,0-4.96-0.914-7.18-3.264c-0.783-5.874-3.394-12.531-6.788-17.623
			c-4.438,6.788-9.79,12.01-16.056,15.665c11.096,14.229,28.196,23.889,45.558,28.065l-0.261,1.437
			c-6.919,1.827-12.271,7.832-14.49,16.84c-19.842-10.183-31.329-26.631-38.117-52.086v52.607c0,1.958-8.354,6.658-15.534,6.658
			h-3.655v-35.507c-13.054,11.879-30.938,22.583-50.779,28.719l-0.783-1.567c16.709-9.138,32.243-24.802,42.687-42.425
			c-1.176,0.522-2.611,0.783-4.047,0.783c-2.611,0-5.483-1.175-7.441-4.047v-1.044c0-3.655-0.652-7.702-1.696-11.227
			c-6.267,8.877-13.838,15.403-22.584,20.104l-1.436-1.045c7.963-9.79,14.49-27.543,16.97-46.472l21.931,6.136
			c-0.521,1.696-1.696,2.61-5.222,2.741c-1.958,5.091-4.177,9.79-6.657,13.968c9.66,2.741,14.099,6.657,15.273,10.312
			c1.436-3.003,2.741-6.005,3.785-9.138v-28.458h-49.996l-0.653-2.219h50.649v-22.975l24.149,2.219
			c-0.261,1.958-1.175,3.002-4.96,3.524v17.231h23.889l10.052-12.662l18.536,12.923c-0.914,1.566-2.741,1.958-6.527,1.958h-45.949
			V217.946z"/>
	</g>
	<g>
		<path fill="#FCEE21" d="M59.879,76.606l0.134,0.799l-3.795,1.798c-1.931,11.384-9.587,18.507-26.098,22.103l-0.332-0.599
			c8.787-4.328,13.913-9.72,16.11-17.11c-3.062,1.198-6.524,2.53-10.452,3.995c-0.333,0.865-1.065,1.464-1.797,1.598l-5.061-9.254
			c3.662-0.266,10.452-0.932,18.441-1.864c0.2-1.531,0.267-3.196,0.267-4.927V66.82h-13.98l-0.333-1.065h14.313V52.839H31.386
			l-0.333-1.065h16.244V38.593l12.183,0.865c-0.066,0.932-0.732,1.332-2.729,1.665v32.022c0,1.332-0.066,2.597-0.199,3.861
			L59.879,76.606z M82.515,75.408l8.854,6.458c-0.467,0.732-1.531,0.932-3.263,0.932H72.462v15.179c0,0.999-4.194,3.329-7.856,3.329
			h-1.797v-62.58l12.183,1.131c-0.133,0.932-0.599,1.531-2.529,1.798v10.119h4.327l4.66-6.125l8.588,6.258
			c-0.466,0.732-1.531,0.932-3.262,0.932H72.462v13.448h4.061l4.327-5.659l7.989,5.792c-0.532,0.732-1.531,0.932-3.195,0.932H72.462
			v14.38h5.192L82.515,75.408z"/>
		<path fill="#FCEE21" d="M149.684,45.716l8.521,7.989c-0.599,0.599-1.198,0.799-2.596,0.865c-2.73,1.598-7.257,3.595-10.652,4.594
			l-0.399-0.333c0.333-1.864,0.666-4.86,0.865-7.123h-38.945c0.199,0.999,0.333,1.864,0.333,2.729c0,4.194-2.53,6.591-5.792,6.591
			c-2.729,0-5.26-1.731-5.26-4.66c0-2.53,2.063-4.261,4.327-4.993c1.864-0.599,4.128-2.397,3.861-4.527l0.799-0.066
			c0.666,1.398,1.132,2.663,1.465,3.861h5.192c-0.998-0.2-2.063-0.732-2.929-1.797c0-3.396-1.332-7.323-3.595-9.587l0.399-0.399
			c9.054,0.932,12.116,4.128,12.116,6.99c0,2.33-1.931,4.328-4.261,4.793h8.588V38.06l11.917,1.132
			c-0.066,0.799-0.6,1.265-2.264,1.465v9.986h3.595c1.132-3.662,2.33-8.721,2.996-12.117l13.182,4.328
			c-0.267,0.799-0.865,1.132-2.663,0.999c-2.929,1.931-7.522,4.66-11.717,6.791h7.989L149.684,45.716z M139.165,78.271l3.462-4.527
			l9.254,6.458c-0.399,0.532-1.198,1.198-2.663,1.464v6.524c0,4.926-0.799,8.588-10.386,9.72c0-5.792-1.132-7.789-5.126-8.455
			v-0.732h5.592c0.399,0,0.533-0.2,0.533-0.866v-8.521h-8.455v19.64c0,0.666-4.261,2.396-7.522,2.396h-1.798V79.336h-8.322v15.046
			c0,0.2-1.397,3.395-9.32,3.395V74.542l9.986,3.729h7.656v-7.523h-3.795c-0.732,1.132-3.994,2.929-7.789,2.929h-1.331V55.303
			l9.72,3.728h15.179l3.328-4.327l9.121,6.191c-0.333,0.466-1.132,1.065-2.33,1.332v8.921c0,0.066-2.663,1.931-9.453,1.931v-2.33
			h-1.665c-0.199,0.533-0.466,0.865-1.664,1.065v6.458H139.165z M118.394,69.683h16.312v-9.586h-16.312V69.683z"/>
		<path fill="#FCEE21" d="M219.117,71.68l7.39,6.125c-0.467,0.732-1.332,0.932-3.196,0.932h-8.122v10.252
			c0,0.066-2.396,2.53-9.586,2.53v-4.66h-7.723v4.061c0,5.459-1.465,9.587-12.383,10.452c0-6.591-2.996-7.589-8.788-8.388v-0.866
			h10.253c0.865,0,1.132-0.333,1.132-1.065v-4.194h-18.108l-0.333-1.065h18.441v-7.057H161.93l-0.267-1.065h26.431v-6.924h-17.576
			l-0.333-1.065h17.909v-6.458h-6.524c0,0.666-1.864,3.528-9.653,3.528V49.444l10.186,3.794h5.992v-6.058h-25.165l-0.333-1.065
			h25.498v-8.122l12.315,1.065c-0.066,0.799-0.399,1.398-2.529,1.731v5.326h11.251l4.993-6.059l9.187,6.191
			c-0.532,0.799-1.397,0.932-3.262,0.932H197.88v6.058h6.125l3.395-4.46l9.388,6.391c-0.399,0.466-1.132,0.999-2.33,1.265v7.39
			c-0.067,0.399-2.597,1.465-5.26,1.997l8.321,5.792c-0.332,0.466-1.064,0.999-2.33,1.265v4.594L219.117,71.68z M181.569,62.16
			h6.524v-7.856h-6.524V62.16z M204.67,54.304h-6.79v7.856h6.79V54.304z M197.88,63.225v6.458h7.057l2.729-3.595
			c-0.399,0.066-2.463,0.066-2.996,0.066v-2.929H197.88z M197.88,70.748v6.924h7.723v-6.924H197.88z M205.603,85.794v-7.057h-7.723
			v7.057H205.603z"/>
		<path fill="#FCEE21" d="M272.972,88.057l0.066,4.927c2.996,1.132,3.396,1.531,3.396,2.729c0,3.129-2.197,4.793-10.652,4.793
			h-10.918c-8.389,0-10.252-1.531-10.252-8.255v-7.39l10.852,0.666c-0.799-1.198-1.731-2.197-2.663-3.062
			c-1.198,0.399-2.729,0.732-4.594,0.932c0-4.793-0.999-6.391-4.66-6.924v-0.799h4.993c0.466,0,0.599-0.2,0.599-0.799v-3.728h-8.056
			v9.387c0,0.2-1.198,3.129-8.321,3.129V55.636c-0.466,0.599-1.132,0.932-1.73,1.065l-3.263-8.654
			c1.798,0.066,4.527,0.066,7.855,0.066c0.866-3.329,1.599-7.323,1.998-10.252l11.85,3.262c-0.199,0.799-0.865,1.132-2.529,1.065
			c-1.864,1.798-4.594,3.995-7.39,5.925h11.65c-0.666-1.598-1.599-3.062-2.729-4.127l0.466-0.399
			c8.787,1.131,11.717,4.46,11.717,7.323c0,2.463-2.197,4.594-4.594,4.594c-0.532,0-1.065-0.133-1.598-0.333l5.858,4.128
			c-0.399,0.532-1.265,1.132-2.663,1.398v14.447c0,2.862-0.333,5.126-3.195,6.657c8.588-0.333,11.518,2.596,11.518,5.326
			c0,2.397-2.197,4.661-4.794,4.661c-0.998,0-2.13-0.333-3.129-1.199c-0.532-1.531-1.397-3.262-2.396-4.727
			c-0.133,0.466-0.599,0.799-2.063,0.999v5.459c0,1.265,0,1.265,1.997,1.265h10.319c2.862,0,3.595,0,6.657-5.526H272.972z
			 M240.217,86.06c0.732,2.064,1.065,3.928,1.065,5.525c0,5.393-3.528,8.189-7.123,8.189c-2.863,0-5.593-1.665-5.593-4.527
			c0-2.463,2.063-4.127,4.261-4.793c2.863-0.399,6.191-1.931,6.591-4.394H240.217z M252.6,53.838
			c-0.066-1.265-0.266-2.53-0.666-3.861c-4.261,1.331-9.786,2.862-17.176,4.793l6.657,2.663h7.058l3.262-4.194L252.6,53.838z
			 M249.138,58.499h-8.056v5.126h8.056V58.499z M241.082,70.082h8.056V64.69h-8.056V70.082z M288.084,52.307
			c2.862,1.132,3.129,1.531,3.129,2.729c0,3.129-2.396,4.66-9.854,4.66h-9.187c-8.056,0-9.653-1.731-9.653-8.455V38.126
			l10.852,0.732c-0.134,0.732-0.466,1.132-2.197,1.398v5.992c3.729-1.931,7.723-4.394,9.587-5.858l6.391,7.457
			c-0.266,0.2-0.532,0.266-0.865,0.266c-0.399,0-0.932-0.133-1.465-0.466c-2.796,0.466-8.454,0.999-13.647,1.065v2.596
			c0,1.465,0.066,1.465,1.798,1.465h8.455c2.529,0,3.195,0,6.058-4.394h0.466L288.084,52.307z M288.283,75.342
			c2.863,1.065,3.196,1.531,3.196,2.729c0,3.129-2.464,4.66-9.92,4.66h-9.32c-8.122,0-9.72-1.731-9.72-8.521V60.296l10.852,0.732
			c-0.134,0.732-0.466,1.132-2.197,1.398v6.125c4.261-2.197,8.921-5.06,11.118-6.724l6.191,7.989c-0.2,0.2-0.533,0.333-0.799,0.333
			c-0.466,0-0.933-0.2-1.531-0.599c-2.996,0.532-9.32,1.198-14.979,1.332v3.395c0,1.465,0.066,1.531,1.798,1.531h8.654
			c2.463,0,3.263,0,6.059-4.527h0.466L288.283,75.342z M273.771,85.328c12.782,0.333,16.977,5.06,16.977,8.988
			c0,2.862-2.264,5.326-4.993,5.326c-1.132,0-2.33-0.399-3.462-1.332c-1.465-4.594-4.794-9.653-8.854-12.516L273.771,85.328z"/>
	</g>
	<g>
		<path fill="#FFFFFF" d="M64.024,123.409l4.309,3.414c-0.266,0.364-0.763,0.464-1.657,0.464h-1.591v17.333
			c-0.033,0.265-1.426,1.226-3.845,1.226h-0.862v-18.56h-2.353v1.193c0,5.999-0.597,13.024-8.882,17.333l-0.299-0.331
			c4.176-4.872,4.574-11.07,4.574-17.135v-1.127c-0.266,0.265-0.729,0.332-1.459,0.332h-4.209c-0.033,0.265-0.231,0.464-0.828,0.563
			v4.043h0.994l1.823-2.618l3.313,2.685c-0.231,0.364-0.695,0.464-1.558,0.464h-4.573v2.055l0.033-0.033
			c4.043,0.729,5.402,2.287,5.402,3.646c0,1.193-1.127,2.221-2.32,2.221c-0.597,0-1.227-0.265-1.757-0.895
			c0.033-1.524-0.497-3.347-1.358-4.541v9.479c0,0.364-2.055,1.259-3.646,1.259h-0.896v-6.827c-1.623,1.69-3.579,3.148-5.7,4.375
			l-0.298-0.431c2.353-2.751,4.143-6.695,5.137-10.307h-4.54l-0.133-0.53h5.534v-4.607h-5.733l-0.132-0.53h9.246
			c0.397-2.121,0.763-5.038,0.928-7.092l5.502,1.226c-0.1,0.398-0.397,0.597-1.26,0.597c-1.061,1.524-2.816,3.646-4.507,5.27h1.789
			l1.856-2.386l3.348,2.386v-9.942l4.772,1.458c1.988-1.292,4.01-2.983,5.104-4.209l4.806,3.812
			c-0.232,0.199-0.563,0.331-1.027,0.331c-0.332,0-0.729-0.066-1.193-0.199c-1.922,0.63-4.938,1.193-7.854,1.524v6.96h3.646
			L64.024,123.409z M37.179,119.796l-0.133-0.53h5.303v-4.971l5.933,0.563c-0.066,0.464-0.364,0.696-1.292,0.829v3.579h0.53
			l1.855-2.618l3.414,2.685c-0.232,0.365-0.696,0.464-1.558,0.464H37.179z M39.565,120.062c3.215,1.492,4.309,3.182,4.309,4.541
			c0,1.392-1.16,2.386-2.32,2.386c-0.696,0-1.392-0.332-1.855-1.126c0.132-0.597,0.165-1.227,0.165-1.889
			c0-1.359-0.231-2.784-0.63-3.778L39.565,120.062z"/>
		<path fill="#FFFFFF" d="M73.502,130.104c0-2.022,1.624-3.646,3.646-3.646c2.022,0,3.646,1.624,3.646,3.646
			c0,2.021-1.624,3.646-3.646,3.646C75.06,133.75,73.502,132.059,73.502,130.104z"/>
		<path fill="#FFFFFF" d="M117.58,117.94c-0.231,0.365-0.695,0.464-1.657,0.464h-11.698v5.965h6.164l1.757-2.32l4.54,3.281
			c-0.231,0.265-0.63,0.563-1.325,0.696v14.748c0,2.618-0.563,4.507-5.668,5.071c0-3.281-1.292-3.977-3.679-4.342v-0.397h4.275
			c0.299,0,0.431-0.133,0.431-0.464v-2.784c-0.265,0.63-0.464,1.359-0.563,2.088c-1.126-1.061-1.955-3.082-2.319-5.17
			c-0.63,1.922-1.923,3.646-3.612,4.839v4.375c0,0.265-1.393,1.226-3.845,1.226h-0.862v-7.457c-0.298,0.629-0.497,1.425-0.596,2.187
			c-1.061-1.061-1.856-3.082-2.221-5.137c-0.63,1.922-1.89,3.679-3.579,4.872v4.408c0,0.132-0.63,1.79-4.541,1.79v-23.432
			l4.938,1.922h5.998v-5.965H86.46l-0.166-0.53h23.764l2.684-3.348L117.58,117.94z M98.523,128.579
			c-0.265,0.365-1.159,0.563-2.121,0.696v0.696c0.232,2.552,1.359,4.275,3.115,5.568V124.9h-6.396v14.119
			c1.425-2.188,2.552-5.999,2.783-9.147v-1.094h-2.055l-0.133-0.53h1.724l0.862-1.325L98.523,128.579z M110.72,124.9h-6.495v13.953
			c1.425-2.22,2.552-5.899,2.816-8.981v-1.094h-2.154l-0.132-0.53h1.789l0.862-1.358l2.253,1.69
			c-0.265,0.365-1.192,0.563-2.154,0.696c0,3.944,2.42,5.7,3.215,6.264V124.9z"/>
		<path fill="#FFFFFF" d="M127.422,126.16v5.535c0,1.392-0.066,2.916-0.364,4.507h7.59v-5.203h-6.629l-0.133-0.53h13.556
			l2.221-3.115l4.076,3.182c-0.265,0.364-0.729,0.464-1.624,0.464h-6.496v5.203h3.712l2.287-3.182l4.176,3.248
			c-0.265,0.365-0.729,0.464-1.624,0.464h-8.551v8.153c0,0.199-1.491,0.994-4.043,0.994h-0.928v-9.147h-7.689
			c-0.729,3.314-2.618,6.728-7.291,9.048l-0.199-0.232c2.851-4.076,3.05-9.346,3.05-13.853v-7.921l0.364,0.133v-8.054l5.866,0.464
			c-0.066,0.431-0.299,0.729-1.26,0.861v3.911h5.104v-6.761l5.998,0.563c-0.066,0.464-0.364,0.696-1.292,0.829v5.369h5.27v-5.237
			l5.998,0.464c-0.065,0.464-0.298,0.729-1.226,0.861v5.204c0,0.066-0.133,0.166-0.332,0.232l3.878,3.082
			c-0.265,0.365-0.696,0.464-1.624,0.464H127.422z M127.488,123.144c0,0.132-1.425,0.861-4.275,0.861l4.905,1.624h16.174
			l1.988-2.784c-1.293,0.397-2.52,0.397-3.712,0.397v-1.624h-15.08V123.144z"/>
		<path fill="#FFFFFF" d="M181.112,141.14l2.85,2.718c-0.231,0.364-0.663,0.464-1.558,0.464h-29.629l-0.133-0.53h4.408v-10.871
			c-1.061,0.53-2.088,0.53-3.381,0.53v-18.294l4.772,1.756h5.369l1.955-2.485l3.68,2.552c-0.232,0.398-0.729,0.464-1.559,0.464
			h-4.474v4.077h0.53l1.227-1.591l3.546,2.353c-0.133,0.166-0.397,0.365-0.829,0.431v3.878c0,0.066-0.994,0.928-3.711,0.928v-0.895
			h-0.729v4.043h0.497l2.021-2.519l3.712,2.585c-0.231,0.398-0.729,0.464-1.558,0.464h-10.142v0.995
			c0,0.132-0.265,0.397-0.729,0.629l4.54,1.724h12.992l1.889-2.419l4.573,3.082c-0.231,0.332-0.597,0.53-1.491,0.696v7.556
			L181.112,141.14z M159.603,117.443h-1.624v4.077h1.624V117.443z M164.177,122.05h-6.198v4.043h6.198V122.05z M159.636,130.667
			v-4.043h-1.657v4.043H159.636z M161.492,135.075v8.716h1.656v-8.716H161.492z M169.114,135.075h-1.657v8.716h1.657V135.075z
			 M173.423,120.89c-1.127,2.254-2.618,4.342-4.475,5.767l-0.431-0.232c1.293-2.95,1.989-7.689,2.154-11.566l5.635,0.928
			c-0.1,0.431-0.432,0.663-1.193,0.729c-0.364,1.259-0.829,2.552-1.425,3.844h3.877l2.221-3.016l4.143,3.082
			c-0.265,0.365-0.762,0.464-1.624,0.464H173.423z M177.367,128.049l2.121-2.95l3.91,3.016c-0.265,0.365-0.762,0.464-1.624,0.464
			h-10.705l-0.132-0.53H177.367z M175.08,135.075h-1.657v8.716h1.657V135.075z"/>
		<path fill="#FFFFFF" d="M206.664,131.993l1.724-2.253l4.573,3.215c-0.199,0.232-0.563,0.497-1.16,0.629v10.97
			c0,0.033-1.259,1.094-4.806,1.094v-2.055h-11.268v0.497c0,0.132-0.663,1.756-4.707,1.756v-15.775l0.597,0.232
			c-0.066-1.326-0.165-2.154-1.756-2.419v-0.398h1.822c0.133,0,0.199-0.132,0.199-0.464v-1.558h-0.332
			c-1.558,2.188-3.579,3.844-5.634,4.806l-0.397-0.298c1.027-1.524,2.055-4.176,2.685-6.827l3.679,1.392v-2.021h-6.032l-0.133-0.53
			h6.165v-7.656l5.634,0.53c-0.066,0.464-0.364,0.696-1.325,0.862v2.452h0.597l1.855-2.552l3.513,2.618
			c-0.265,0.365-0.762,0.464-1.558,0.464h-4.407v3.281h1.855l2.021-2.651l3.712,2.718c-0.231,0.397-0.695,0.464-1.558,0.464h-6.031
			v4.541c0,2.021-0.365,3.414-2.553,4.043l2.354,0.895H206.664z M206.995,132.523h-11.268v3.083h11.268V132.523z M206.995,136.136
			h-11.268v3.148h11.268V136.136z M195.728,143.062h11.268v-3.248h-11.268V143.062z M197.384,123.807
			c3.745,0.795,4.972,2.188,4.972,3.348c0,1.16-1.16,2.121-2.386,2.121c-0.696,0-1.426-0.332-1.923-1.094
			c0.1-1.392-0.231-3.148-0.895-4.209L197.384,123.807z M212.828,114.792l3.944,3.348c-0.232,0.364-0.53,0.464-1.293,0.563
			c-0.928,2.387-2.254,4.541-4.043,6.43c1.789,0.961,3.778,1.657,5.8,2.188l-0.033,0.365c-1.79,0.431-3.082,1.823-3.679,3.977
			c-1.988-1.094-3.646-2.354-5.005-3.944c-2.187,1.558-4.772,2.817-7.888,3.778l-0.165-0.397c2.685-1.425,4.838-3.314,6.495-5.502
			c-1.226-2.088-2.121-4.673-2.718-7.987h-2.319l-0.166-0.53h8.717L212.828,114.792z M204.741,117.609
			c0.829,2.353,2.154,4.176,3.812,5.568c0.962-1.724,1.69-3.613,2.188-5.568H204.741z"/>
		<path fill="#FFFFFF" d="M218.428,132.656c1.724-4.309,3.514-11.766,4.375-18.294l5.966,1.458c-0.1,0.431-0.398,0.696-1.326,0.762
			c-0.695,2.32-1.491,4.508-2.419,6.562l1.657,0.597c-0.133,0.298-0.398,0.53-1.061,0.629v20.283
			c-0.033,0.298-1.856,1.193-3.514,1.193h-0.795v-16.041c-0.796,1.126-1.624,2.154-2.486,3.082L218.428,132.656z M250.277,134.313
			c-0.231,0.364-0.729,0.464-1.591,0.464h-5.866c1.657,2.552,4.839,4.441,7.821,5.402l-0.099,0.331
			c-1.624,0.464-2.784,1.889-3.348,4.242c-2.618-2.253-4.011-5.634-4.905-9.976h-0.066v9.942c0,0.066-0.861,1.127-4.64,1.127v-5.933
			c-2.32,2.055-5.27,3.712-8.716,4.972l-0.266-0.431c3.348-2.419,5.8-6.032,7.093-9.677h-4.408v4.507c0,0.033-0.696,1.16-4.043,1.16
			v-20.349l5.17,0.431c-0.033,0.431-0.266,0.663-1.127,0.795v9.247c2.884-1.26,5.236-2.95,7.026-5.038
			c-0.929-1.061-1.69-2.287-2.354-3.613c-1.292,1.425-2.718,2.585-4.242,3.513l-0.364-0.265c1.491-2.419,2.916-6.662,3.646-10.804
			l5.733,1.856c-0.133,0.397-0.464,0.663-1.358,0.663c-0.398,0.762-0.796,1.492-1.26,2.188h5.236l2.254-3.082l4.143,3.148
			c-0.265,0.365-0.762,0.464-1.624,0.464h-1.358c-0.862,1.989-2.055,3.712-3.514,5.204c2.088,0.563,4.508,0.928,7.292,1.093
			l-0.033,0.365c-1.79,0.762-2.585,2.188-2.751,4.408c-3.281-0.696-5.7-1.823-7.59-3.347c-2.419,1.624-5.369,2.85-8.815,3.712
			l-0.066-0.232v3.447h6.297v-4.607l5.767,0.497c-0.066,0.398-0.265,0.63-1.127,0.762v3.348h1.956l2.154-2.85L250.277,134.313z
			 M237.783,119.598c-0.365,0.563-0.763,1.094-1.193,1.591c0.861,0.928,1.922,1.69,3.215,2.353c0.762-1.226,1.358-2.552,1.79-3.944
			H237.783z"/>
		<path fill="#FFFFFF" d="M261.877,115.819c-0.1,0.431-0.397,0.696-1.326,0.762c-0.695,2.32-1.491,4.508-2.419,6.562l1.657,0.597
			c-0.133,0.298-0.398,0.53-1.061,0.629v20.283c-0.033,0.298-1.856,1.193-3.514,1.193h-0.795v-16.041
			c-0.796,1.126-1.624,2.154-2.485,3.082l-0.398-0.232c1.724-4.309,3.514-11.766,4.375-18.294L261.877,115.819z M276.625,137.03
			c0,0.332-1.823,1.16-3.314,1.16h-0.795v-12.395c-0.199,0.232-0.497,0.331-1.094,0.397c-0.896,7.789-3.115,15.345-11.766,19.687
			l-0.199-0.431c3.381-2.751,5.303-6.496,6.43-10.672c-0.133,0.033-0.265,0.033-0.397,0.033c-0.597,0-1.193-0.232-1.724-0.795
			c-0.066-1.061-0.431-2.188-1.061-3.049c-0.861,1.16-1.855,2.221-2.949,3.215l-0.365-0.431c2.387-4.242,3.547-10.042,4.077-15.709
			h-2.884l-0.133-0.53h6.894l2.188-2.917l4.077,2.983c-0.266,0.364-0.763,0.464-1.624,0.464h-4.011
			c-0.364,2.32-0.928,4.507-1.724,6.562h0.696l2.021-2.154l3.547,3.049v-6.728l5.104,0.431c-0.066,0.364-0.265,0.596-0.994,0.696
			V137.03z M266.053,125.132c-0.729,1.79-1.657,3.48-2.751,5.038c1.558,0.066,2.651,0.332,3.381,0.729
			c0.298-1.889,0.497-3.811,0.597-5.767H266.053z M277.785,114.925l5.634,0.464c-0.033,0.464-0.199,0.729-1.325,0.895v24.26
			c0,2.751-0.663,4.839-5.502,5.303c0-2.817-0.729-3.877-3.944-4.309v-0.431h4.574c0.431,0,0.563-0.166,0.563-0.563V114.925z"/>
	</g>
</g>
</svg>
