<?xml version="1.0" encoding="utf-8"?>
<!-- Generator: Adobe Illustrator 17.0.0, SVG Export Plug-In . SVG Version: 6.00 Build 0)  -->
<!DOCTYPE svg PUBLIC "-//W3C//DTD SVG 1.1//EN" "http://www.w3.org/Graphics/SVG/1.1/DTD/svg11.dtd">
<svg version="1.1" xmlns="http://www.w3.org/2000/svg" xmlns:xlink="http://www.w3.org/1999/xlink" x="0px" y="0px" width="320px"
	 height="320px" viewBox="0 0 320 320" enable-background="new 0 0 320 320" xml:space="preserve">
<g id="Layer_3">
	
		<text transform="matrix(1 0 0 1 160 62.456)" fill="#FFFFFF" font-family="'KozMinPro-Heavy-83pv-RKSJ-H'" font-size="58.4821" glyph-orientation-vertical="0" writing-mode="tb">監督條例</text>
	<g>
		
			<text transform="matrix(1 0 0 1 53.0001 87.5503)" fill="#FFFFFF" font-family="'KozMinPro-Heavy-83pv-RKSJ-H'" font-size="73.2804" glyph-orientation-vertical="0" writing-mode="tb">服貿</text>
	</g>
	
		<text transform="matrix(1 0 0 1 267 62.456)" fill="#FFFFFF" font-family="'KozMinPro-Heavy-83pv-RKSJ-H'" font-size="58.4821" glyph-orientation-vertical="0" writing-mode="tb">其他事務</text>
	
		<text transform="matrix(1 0 0 1 126.5815 52.3203)" fill="#FFFFFF" font-family="'KozMinPro-Heavy-83pv-RKSJ-H'" font-size="33.4187">兩岸</text>
	
		<text transform="matrix(1 0 0 1 233.5815 52.3203)" fill="#FFFFFF" font-family="'KozMinPro-Heavy-83pv-RKSJ-H'" font-size="33.4187">兩岸</text>
</g>
<g id="Layer_2">
	<rect fill="#4D4D4D" width="106" height="320"/>
	<rect x="214" fill="#4D4D4D" width="106" height="320"/>
	<rect x="106" fill="#4D4D4D" width="108" height="320"/>
</g>
<g id="Layer_4">
	<polygon fill="#ED1C24" points="214,67.143 106,20.143 106,-8.857 214,38.143 	"/>
	<polygon fill="#ED1C24" points="214,118.286 106,71.286 106,42.286 214,89.286 	"/>
	<polygon fill="#ED1C24" points="214,169.429 106,122.429 106,93.429 214,140.429 	"/>
	<polygon fill="#ED1C24" points="214,220.571 106,173.571 106,144.571 214,191.571 	"/>
	<polygon fill="#ED1C24" points="214,271.714 106,224.714 106,195.714 214,242.714 	"/>
	<polygon fill="#ED1C24" points="214,16 106,-31 106,-60 214,-13 	"/>
	<polygon fill="#ED1C24" points="214,322.857 106,275.857 106,246.857 214,293.857 	"/>
	<polygon fill="#ED1C24" points="214.559,373.194 105.872,327.803 105.441,298.806 214.128,344.197 	"/>
</g>
<g id="Layer_1">
	<g>
		<path fill="#FFFFFF" d="M182.722,111.171l5.03,4.796c-0.41,0.644-1.17,0.819-2.749,0.819h-52.287l-0.234-0.937h7.778V96.666
			c-1.871,0.937-3.685,0.937-5.965,0.937V65.317l8.422,3.1h9.475l3.451-4.387l6.491,4.504c-0.409,0.702-1.286,0.818-2.748,0.818
			h-7.896v7.194h0.937l2.164-2.808l6.258,4.152c-0.234,0.293-0.702,0.644-1.462,0.761v6.843c0,0.117-1.755,1.638-6.551,1.638v-1.579
			h-1.287v7.136h0.878l3.567-4.445l6.551,4.562c-0.41,0.702-1.287,0.819-2.749,0.819h-17.897v1.755c0,0.233-0.468,0.701-1.286,1.111
			l8.013,3.041h22.927l3.334-4.27l8.071,5.439c-0.41,0.585-1.053,0.936-2.633,1.228v13.335L182.722,111.171z M144.764,69.353h-2.866
			v7.194h2.866V69.353z M152.835,77.482h-10.938v7.136h10.938V77.482z M144.823,92.689v-7.136h-2.925v7.136H144.823z
			 M148.098,100.468v15.382h2.924v-15.382H148.098z M161.55,100.468h-2.925v15.382h2.925V100.468z M169.153,75.436
			c-1.988,3.978-4.62,7.662-7.896,10.177l-0.76-0.409c2.28-5.206,3.509-13.569,3.801-20.412l9.943,1.638
			c-0.176,0.76-0.761,1.17-2.105,1.286c-0.644,2.223-1.462,4.504-2.516,6.785h6.844l3.918-5.322l7.312,5.439
			c-0.468,0.643-1.346,0.818-2.866,0.818H169.153z M176.113,88.068l3.743-5.205l6.901,5.322c-0.468,0.644-1.345,0.819-2.865,0.819
			H165l-0.233-0.937H176.113z M172.078,100.468h-2.925v15.382h2.925V100.468z"/>
		<path fill="#FFFFFF" d="M169.329,153.51l3.041-3.977l8.071,5.673c-0.351,0.409-0.994,0.878-2.047,1.111v19.359
			c0,0.059-2.223,1.93-8.48,1.93v-3.626h-19.886v0.877c0,0.234-1.17,3.101-8.305,3.101v-27.84l1.053,0.409
			c-0.117-2.34-0.293-3.802-3.101-4.27v-0.702h3.217c0.234,0,0.352-0.233,0.352-0.818v-2.749h-0.585
			c-2.749,3.86-6.316,6.784-9.942,8.48l-0.702-0.526c1.812-2.69,3.626-7.369,4.737-12.048l6.492,2.456v-3.567h-10.645l-0.234-0.937
			h10.879v-13.51l9.942,0.936c-0.117,0.818-0.644,1.229-2.339,1.521v4.328h1.053l3.275-4.504l6.199,4.621
			c-0.468,0.644-1.346,0.818-2.749,0.818h-7.778v5.79h3.274l3.568-4.679l6.551,4.796c-0.41,0.702-1.229,0.819-2.749,0.819h-10.645
			v8.013c0,3.567-0.644,6.023-4.504,7.135l4.152,1.579H169.329z M169.914,154.446h-19.886v5.438h19.886V154.446z M169.914,160.821
			h-19.886v5.556h19.886V160.821z M150.028,173.045h19.886v-5.731h-19.886V173.045z M152.953,139.063
			c6.608,1.404,8.772,3.86,8.772,5.907s-2.047,3.743-4.211,3.743c-1.229,0-2.515-0.585-3.393-1.93
			c0.176-2.456-0.409-5.557-1.579-7.428L152.953,139.063z M180.208,123.155l6.96,5.907c-0.41,0.644-0.937,0.819-2.281,0.994
			c-1.638,4.211-3.978,8.013-7.136,11.347c3.158,1.696,6.668,2.925,10.235,3.86l-0.059,0.644c-3.158,0.76-5.439,3.217-6.492,7.018
			c-3.509-1.93-6.434-4.152-8.831-6.96c-3.86,2.749-8.422,4.972-13.92,6.668l-0.293-0.702c4.738-2.515,8.54-5.849,11.464-9.709
			c-2.164-3.685-3.743-8.246-4.796-14.095h-4.094l-0.293-0.936h15.382L180.208,123.155z M165.936,128.127
			c1.463,4.152,3.802,7.369,6.727,9.825c1.696-3.041,2.982-6.375,3.86-9.825H165.936z"/>
		<path fill="#FFFFFF" d="M131.605,213.162c3.041-7.604,6.199-20.763,7.72-32.284l10.527,2.573c-0.175,0.76-0.701,1.228-2.339,1.345
			c-1.229,4.095-2.632,7.954-4.27,11.581l2.924,1.053c-0.233,0.526-0.701,0.936-1.871,1.11v35.795
			c-0.059,0.526-3.275,2.105-6.2,2.105h-1.403v-28.308c-1.403,1.988-2.866,3.801-4.387,5.438L131.605,213.162z M187.81,216.087
			c-0.409,0.643-1.286,0.818-2.807,0.818h-10.353c2.925,4.504,8.539,7.837,13.803,9.533l-0.175,0.585
			c-2.866,0.819-4.913,3.334-5.907,7.486c-4.621-3.977-7.077-9.942-8.656-17.604h-0.117v17.546c0,0.117-1.521,1.989-8.188,1.989
			v-10.47c-4.094,3.626-9.299,6.551-15.382,8.773l-0.468-0.761c5.907-4.27,10.235-10.645,12.517-17.078h-7.779v7.954
			c0,0.059-1.229,2.047-7.136,2.047v-35.91l9.124,0.76c-0.058,0.761-0.468,1.17-1.988,1.404v16.317
			c5.089-2.223,9.241-5.205,12.399-8.89c-1.638-1.872-2.982-4.036-4.152-6.375c-2.281,2.515-4.796,4.562-7.486,6.199l-0.644-0.468
			c2.632-4.27,5.146-11.756,6.434-19.066l10.118,3.274c-0.234,0.702-0.818,1.17-2.398,1.17c-0.701,1.346-1.403,2.632-2.222,3.86
			h9.24l3.978-5.439l7.311,5.557c-0.468,0.644-1.345,0.818-2.865,0.818h-2.398c-1.521,3.51-3.626,6.551-6.199,9.183
			c3.685,0.994,7.954,1.638,12.867,1.93l-0.059,0.644c-3.158,1.346-4.562,3.86-4.854,7.779c-5.79-1.229-10.06-3.217-13.394-5.907
			c-4.27,2.865-9.475,5.029-15.558,6.551l-0.117-0.41v6.083h11.112v-8.13l10.177,0.877c-0.116,0.702-0.468,1.111-1.988,1.346v5.907
			h3.451l3.801-5.03L187.81,216.087z M165.761,190.118c-0.644,0.994-1.346,1.931-2.105,2.808c1.521,1.638,3.392,2.982,5.673,4.152
			c1.346-2.164,2.398-4.503,3.158-6.96H165.761z"/>
		<path fill="#FFFFFF" d="M149.794,241.934c-0.176,0.76-0.702,1.228-2.34,1.345c-1.229,4.095-2.632,7.954-4.27,11.581l2.924,1.053
			c-0.233,0.526-0.701,0.936-1.871,1.11v35.795c-0.059,0.526-3.275,2.105-6.199,2.105h-1.404v-28.308
			c-1.403,1.988-2.865,3.801-4.387,5.438l-0.701-0.409c3.041-7.604,6.199-20.763,7.72-32.284L149.794,241.934z M175.821,279.365
			c0,0.585-3.217,2.047-5.849,2.047h-1.404v-21.874c-0.351,0.409-0.877,0.585-1.93,0.701c-1.579,13.745-5.498,27.08-20.763,34.741
			l-0.351-0.76c5.965-4.854,9.357-11.464,11.346-18.833c-0.233,0.059-0.468,0.059-0.701,0.059c-1.053,0-2.105-0.409-3.042-1.403
			c-0.116-1.872-0.76-3.86-1.871-5.381c-1.521,2.047-3.275,3.918-5.205,5.673l-0.644-0.76c4.211-7.486,6.258-17.722,7.193-27.724
			h-5.088l-0.234-0.936h12.166l3.859-5.146l7.194,5.264c-0.468,0.644-1.346,0.818-2.866,0.818h-7.077
			c-0.643,4.095-1.638,7.955-3.041,11.581h1.229l3.567-3.802l6.258,5.381v-11.873l9.008,0.761c-0.117,0.643-0.469,1.053-1.755,1.228
			V279.365z M157.164,258.368c-1.287,3.158-2.925,6.141-4.854,8.89c2.749,0.117,4.679,0.585,5.966,1.287
			c0.526-3.334,0.877-6.726,1.053-10.177H157.164z M177.868,240.354l9.942,0.818c-0.058,0.819-0.351,1.287-2.339,1.579v42.812
			c0,4.854-1.17,8.539-9.709,9.358c0-4.972-1.287-6.844-6.96-7.604v-0.761h8.071c0.761,0,0.994-0.292,0.994-0.994V240.354z"/>
	</g>
	<g>
		<g>
			<path fill="#FFFFFF" d="M35.707,94.433l3.812-4.91l9.381,6.962c-0.439,0.514-1.246,1.1-2.565,1.319v49.543
				c0,6.303-1.466,10.847-11.286,11.652c0-7.548-1.319-9.233-5.937-9.967v-0.806h6.669c0.44,0,0.66-0.367,0.66-1.1v-16.783h-5.057
				c-1.026,10.114-4.031,20.667-12.605,28.655l-0.733-0.439c4.397-12.312,4.397-27.556,4.397-43.02V90.622l10.993,3.811H35.707z
				 M31.97,115.54c0,4.177,0,8.867-0.439,13.631h4.91v-16.343H31.97V115.54z M36.44,95.605H31.97v16.05h4.471V95.605z
				 M78.435,116.565l8.867,7.329c-0.439,0.807-1.099,1.1-2.711,1.246c-1.539,6.156-4.031,12.312-7.695,17.882
				c3.518,2.712,7.401,4.837,11.286,6.596l-0.22,0.807c-4.104,0.659-7.329,3.737-9.015,8.647c-3.078-2.638-5.717-5.496-7.915-8.794
				c-2.785,2.785-5.937,5.35-9.674,7.549l-0.44-0.807c3.005-3.298,5.424-7.255,7.329-11.579c-2.932-5.863-4.837-13.046-6.083-22.5
				h-1.905v32.979c0,0.733-3.005,3.078-8.062,3.078h-1.832V90.402l10.92,4.03h11.14l3.664-4.837l9.895,6.963
				c-0.44,0.586-1.393,1.245-2.932,1.539v8.501c0,6.01-1.466,10.554-11.434,11.286c0-8.135-2.052-9.234-6.303-9.894v-0.88h7.109
				c0.513,0,0.732-0.366,0.732-1.025v-10.48H60.259v26.164h13.192L78.435,116.565z M63.264,122.941
				c1.612,6.01,4.397,10.847,7.842,14.731c1.466-4.91,2.419-9.895,3.005-14.731H63.264z"/>
			<path fill="#FFFFFF" d="M77.115,218.279c-0.073,0.514-4.983,2.419-9.088,2.419c13.485,1.1,17.882,4.471,17.882,7.256
				c0,2.418-3.077,4.397-6.376,4.397c-1.612,0-3.298-0.44-4.69-1.539c-3.151-2.932-9.233-7.036-18.248-9.675l0.22-0.806
				c3.591,0,6.815,0.073,9.674,0.22v-2.639H42.597l9.747,7.036c-0.439,0.513-1.173,0.806-2.271,0.806
				c-0.66,0-1.393-0.146-2.346-0.366c-6.815,3.444-17.735,6.083-28.582,6.889l-0.293-0.806c8.647-3.078,17.735-8.795,22.353-13.559
				h-1.832c0,0.293-1.539,3.885-10.407,3.885v-32.613l-3.371,1.539c-0.439,1.026-1.173,1.612-2.052,1.759l-5.277-9.967
				c1.759-0.073,4.251-0.294,7.329-0.587v-15.537l8.281,2.492c4.251-2.052,8.868-4.837,11.066-6.596l8.135,7.401
				c-0.293,0.294-0.659,0.44-1.172,0.44c-0.44,0-0.953-0.146-1.539-0.367c-3.444,0.66-9.674,1.393-15.61,1.539v9.675
				c2.345-0.221,4.764-0.514,7.182-0.733c-0.879-1.979-2.198-3.737-3.664-4.983l0.439-0.439c10.261,0.732,13.632,4.471,13.632,7.769
				c0,2.784-2.345,5.13-5.057,5.13c-1.173,0-2.419-0.439-3.592-1.612c-0.146-1.173-0.366-2.419-0.806-3.664
				c-3.444,1.832-7.842,3.957-13.632,6.669l10.7,4.104h25.798l3.811-4.91l0.953,0.66c0-4.397-0.733-6.229-5.131-7.402l0.073-0.88
				h5.131c0.952,0,1.319,0,1.686-0.293c0.732-0.732,1.173-4.104,1.393-11.652h-4.91c-0.953,9.088-4.471,17.662-21.474,23.159
				l-0.733-0.88c10.7-6.962,11.507-14.657,11.8-22.279h-5.57l-0.366-1.173h20.594l3.592-4.324l8.94,6.522
				c-0.439,0.587-1.319,1.1-2.564,1.319c-0.514,13.705-1.466,18.249-11.36,18.688l8.062,5.57c-0.439,0.513-1.245,1.1-2.564,1.393
				V218.279z M66.488,194.388H39.372v6.522h27.116V194.388z M66.488,208.752v-6.669H39.372v6.669H66.488z M39.372,216.741h27.116
				v-6.816H39.372V216.741z"/>
		</g>
	</g>
	<g>
		<path fill="#FFFFFF" d="M286.654,96.666l8.129,5.907c-0.409,0.644-1.169,0.819-2.865,0.819h-52.463l-0.293-0.937h12.341V74.909
			h-10.469l-0.293-0.936h10.762V64.03l10.703,1.053c-0.116,0.761-0.644,1.229-2.223,1.463v7.428h13.628V64.03l10.879,1.053
			c-0.117,0.761-0.644,1.229-2.281,1.463v7.369l3.977-5.03l7.429,5.205c-0.469,0.702-1.229,0.819-2.808,0.819h-8.598v27.547
			L286.654,96.666z M266.184,108.247c-0.409,0.76-1.346,1.228-3.451,1.111c-4.913,4.211-13.394,8.013-22.634,10.177l-0.234-0.585
			c6.784-3.86,13.102-10.353,15.908-15.324L266.184,108.247z M273.611,74.909h-13.628v8.422h13.628V74.909z M259.983,84.267v8.539
			h13.628v-8.539H259.983z M259.983,93.742v8.714h13.628v-8.714H259.983z M271.097,105.966c17.604,1.17,22.927,5.79,22.927,9.299
			c0,2.34-2.398,4.212-5.089,4.212c-1.345,0-2.749-0.526-3.977-1.696c-2.164-3.217-6.492-7.896-14.096-11.171L271.097,105.966z"/>
		<path fill="#FFFFFF" d="M260.101,125.554c-0.233,0.76-0.76,1.286-2.397,1.286c-1.463,3.919-3.042,7.545-4.854,10.879l2.397,0.877
			c-0.175,0.585-0.643,0.936-1.812,1.17v35.853c-0.117,0.585-3.451,2.34-6.668,2.34h-1.521v-28.776
			c-1.813,2.164-3.743,4.153-5.79,5.907l-0.644-0.409c3.86-7.369,8.071-20.471,10.177-32.284L260.101,125.554z M291.157,160.587
			l-0.059,7.428c3.334,1.346,3.743,1.813,3.743,3.042c0,3.509-2.223,5.088-11.58,5.088h-12.282c-8.89,0-11.464-2.105-11.464-10.177
			v-18.424l-4.035,1.696l-0.702-0.818l4.737-1.988V128.36l10.353,0.878c-0.117,0.76-0.468,1.286-2.164,1.521v12.282l2.982-1.229
			v-19.476l10.411,0.936c-0.117,0.818-0.526,1.286-2.223,1.521v13.628l2.457-0.995l2.982-5.322l8.247,4.796
			c-0.41,0.644-1.17,1.17-2.34,1.521v14.738c0,4.854-1.462,8.305-8.948,8.598c0-3.743-0.059-5.673-0.293-6.316
			c-0.233-0.585-0.818-1.17-1.812-1.463v-0.526h2.164c0.526,0,0.701-0.116,0.701-0.643v-14.563l-3.158,1.345v21.114
			c0,0.117-1.403,2.339-8.188,2.339v-20.119l-2.982,1.287v21.991c0,2.28,0.526,2.632,3.041,2.632h12.692
			c1.521,0,2.456-0.059,3.333-0.937c0.937-0.877,2.164-3.333,3.978-7.311H291.157z"/>
		<path fill="#FFFFFF" d="M289.695,210.412l6.492,5.381c-0.41,0.644-1.17,0.819-2.808,0.819h-7.136v9.007
			c0,0.059-2.105,2.223-8.422,2.223v-4.095h-6.784v3.568c0,4.796-1.287,8.422-10.879,9.183c0-5.791-2.632-6.668-7.72-7.37v-0.76
			h9.007c0.76,0,0.994-0.293,0.994-0.937v-3.685h-15.908l-0.293-0.936h16.201v-6.199h-22.985l-0.234-0.937h23.22v-6.082H247
			l-0.293-0.936h15.733v-5.674h-5.731c0,0.585-1.638,3.1-8.481,3.1v-15.206l8.949,3.334h5.264v-5.322h-22.108l-0.292-0.937h22.4
			v-7.135l10.82,0.936c-0.059,0.702-0.352,1.229-2.223,1.521v4.679h9.884l4.387-5.322l8.071,5.439
			c-0.468,0.702-1.229,0.819-2.866,0.819h-19.476v5.322h5.381l2.982-3.919l8.247,5.614c-0.352,0.41-0.994,0.878-2.047,1.111v6.492
			c-0.059,0.352-2.281,1.287-4.621,1.755l7.311,5.088c-0.292,0.41-0.936,0.878-2.047,1.111v4.036L289.695,210.412z M256.709,202.049
			h5.731v-6.901h-5.731V202.049z M277.004,195.147h-5.966v6.901h5.966V195.147z M271.038,202.984v5.674h6.199l2.398-3.159
			c-0.352,0.059-2.164,0.059-2.632,0.059v-2.573H271.038z M271.038,209.594v6.082h6.784v-6.082H271.038z M277.822,222.812v-6.199
			h-6.784v6.199H277.822z"/>
		<path fill="#FFFFFF" d="M261.621,256.906l6.668,6.316c-0.468,0.526-1.053,0.702-2.281,0.76c-2.105,2.925-5.673,6.96-8.89,9.183
			l-0.468-0.351c0.76-2.749,1.462-7.779,1.754-11.112h-2.397v24.389c0,4.913-1.229,8.363-9.417,8.948
			c0-5.556-1.462-6.843-5.673-7.486v-0.701h6.551c0.468,0,0.644-0.234,0.644-0.819v-9.357c-2.457,3.041-5.381,5.673-8.656,8.013
			l-0.644-0.761c4.328-5.907,7.194-14.329,8.715-22.225h-8.247l-0.292-0.937h18.774L261.621,256.906z M243.9,249.303
			c4.327,0,7.369,0.585,9.416,1.579c0.818-1.988,1.579-4.27,2.105-6.024h-15.616l-0.292-0.936h15.499l4.27-4.152l7.077,6.784
			c-0.469,0.526-1.054,0.702-2.34,0.761c-2.105,1.579-5.322,3.626-8.306,5.205c0.995,0.994,1.404,2.164,1.404,3.217
			c0,2.34-1.988,4.503-4.387,4.503c-0.936,0-1.93-0.351-2.925-1.169c-0.994-3.451-3.333-7.253-6.199-9.417L243.9,249.303z
			 M294.9,248.367c-0.468,0.643-1.345,0.818-2.865,0.818h-1.813c-1.403,4.504-3.51,8.306-6.434,11.464
			c3.393,1.111,7.311,1.871,11.932,2.223l-0.059,0.643c-2.164,1.287-3.275,4.27-3.568,8.306c-6.141-1.638-10.41-3.86-13.568-6.668
			c-1.638,1.053-3.393,1.989-5.264,2.866l7.661,0.644c-0.117,0.701-0.585,1.111-2.164,1.286c-0.175,1.696-0.409,3.393-0.76,5.089
			h4.796l2.982-3.626l7.604,5.438c-0.409,0.526-1.111,0.937-2.223,1.111c-0.877,13.628-2.808,16.786-11.814,16.903
			c0-4.27-0.468-5.966-5.088-7.136v-0.644l5.381,0.059c0.877,0,1.228,0,1.579-0.292c0.994-0.761,1.638-4.211,2.105-10.879h-5.498
			c-1.755,8.013-5.907,15.266-19.593,19.008l-0.41-0.701c8.013-4.328,10.82-10.996,11.814-18.307h-7.72l-0.293-0.936h8.13
			c0.234-1.872,0.352-3.802,0.409-5.731c-2.982,1.11-6.316,1.988-10.001,2.689l-0.233-0.701c6.726-2.281,11.813-5.498,15.382-9.768
			c-1.813-2.515-3.217-5.381-4.387-8.598c-2.223,2.047-4.679,3.685-7.252,4.972l-0.644-0.468c2.982-3.919,5.79-10.879,7.135-18.072
			l10.002,3.392c-0.293,0.761-0.878,1.17-2.398,1.17c-0.818,1.579-1.755,2.982-2.69,4.328h8.656l3.978-5.557L294.9,248.367z
			 M274.372,249.186c-0.761,0.936-1.58,1.872-2.398,2.69c1.579,2.398,3.509,4.387,5.907,5.907c1.521-2.515,2.573-5.439,3.334-8.598
			H274.372z"/>
	</g>
	<g>
		<path fill="#FFFFFF" d="M158.979,27.358c-0.233,0.367-0.701,0.468-1.671,0.468h-11.796v6.015h6.216l1.771-2.339l4.578,3.308
			c-0.233,0.268-0.635,0.568-1.336,0.702v14.87c0,2.641-0.568,4.545-5.715,5.113c0-3.309-1.303-4.01-3.709-4.378v-0.4h4.311
			c0.301,0,0.435-0.134,0.435-0.469v-2.807c-0.268,0.635-0.468,1.37-0.568,2.105c-1.136-1.069-1.972-3.107-2.339-5.213
			c-0.635,1.938-1.938,3.676-3.643,4.879v4.411c0,0.267-1.403,1.236-3.876,1.236h-0.869v-7.52c-0.301,0.636-0.501,1.438-0.602,2.206
			c-1.069-1.069-1.871-3.107-2.239-5.18c-0.635,1.938-1.904,3.709-3.608,4.912v4.444c0,0.134-0.635,1.805-4.578,1.805V31.902
			l4.979,1.938h6.049v-6.015h-13.166l-0.167-0.535h23.96l2.706-3.375L158.979,27.358z M139.765,38.085
			c-0.267,0.367-1.169,0.568-2.139,0.701v0.702c0.234,2.573,1.37,4.311,3.142,5.614V34.376h-6.449v14.235
			c1.437-2.206,2.573-6.049,2.807-9.224v-1.103h-2.071l-0.134-0.534h1.737l0.869-1.337L139.765,38.085z M152.062,34.376h-6.55
			v14.068c1.437-2.239,2.573-5.948,2.841-9.057v-1.103h-2.173l-0.133-0.534h1.804l0.869-1.37l2.272,1.704
			c-0.268,0.367-1.203,0.568-2.172,0.701c0,3.977,2.439,5.748,3.241,6.316V34.376z"/>
		<path fill="#FFFFFF" d="M168.906,35.646v5.58c0,1.404-0.066,2.941-0.367,4.545h7.652v-5.246h-6.684l-0.134-0.535h13.668
			l2.239-3.141l4.109,3.208c-0.267,0.367-0.734,0.468-1.637,0.468h-6.55v5.246h3.742l2.306-3.208l4.211,3.275
			c-0.268,0.367-0.735,0.468-1.638,0.468h-8.621v8.22c0,0.201-1.504,1.003-4.077,1.003h-0.936v-9.223h-7.753
			c-0.734,3.341-2.64,6.783-7.352,9.122l-0.2-0.233c2.874-4.11,3.074-9.424,3.074-13.969v-7.986l0.367,0.134v-8.12l5.915,0.468
			c-0.066,0.435-0.301,0.735-1.27,0.869v3.942h5.146v-6.816l6.048,0.567c-0.066,0.469-0.367,0.702-1.303,0.836v5.413h5.312v-5.279
			l6.049,0.468c-0.066,0.468-0.301,0.735-1.236,0.869v5.246c0,0.066-0.134,0.167-0.334,0.233l3.909,3.108
			c-0.267,0.367-0.701,0.468-1.637,0.468H168.906z M168.974,32.604c0,0.134-1.438,0.869-4.311,0.869l4.945,1.637h16.308l2.005-2.807
			c-1.304,0.401-2.54,0.401-3.743,0.401v-1.638h-15.204V32.604z"/>
	</g>
	<g>
		<path fill="#FFFFFF" d="M265.995,27.358c-0.233,0.367-0.701,0.468-1.671,0.468h-11.796v6.015h6.216l1.771-2.339l4.578,3.308
			c-0.233,0.268-0.635,0.568-1.336,0.702v14.87c0,2.641-0.568,4.545-5.715,5.113c0-3.309-1.303-4.01-3.709-4.378v-0.4h4.311
			c0.301,0,0.435-0.134,0.435-0.469v-2.807c-0.268,0.635-0.468,1.37-0.568,2.105c-1.136-1.069-1.972-3.107-2.339-5.213
			c-0.635,1.938-1.938,3.676-3.643,4.879v4.411c0,0.267-1.403,1.236-3.876,1.236h-0.869v-7.52c-0.301,0.636-0.501,1.438-0.602,2.206
			c-1.069-1.069-1.871-3.107-2.239-5.18c-0.635,1.938-1.904,3.709-3.608,4.912v4.444c0,0.134-0.635,1.805-4.578,1.805V31.902
			l4.979,1.938h6.049v-6.015h-13.166l-0.167-0.535h23.96l2.706-3.375L265.995,27.358z M246.78,38.085
			c-0.267,0.367-1.169,0.568-2.139,0.701v0.702c0.234,2.573,1.37,4.311,3.142,5.614V34.376h-6.449v14.235
			c1.437-2.206,2.573-6.049,2.807-9.224v-1.103h-2.071l-0.134-0.534h1.737l0.869-1.337L246.78,38.085z M259.078,34.376h-6.55v14.068
			c1.437-2.239,2.573-5.948,2.841-9.057v-1.103h-2.173l-0.133-0.534h1.804l0.869-1.37l2.272,1.704
			c-0.268,0.367-1.203,0.568-2.172,0.701c0,3.977,2.439,5.748,3.241,6.316V34.376z"/>
		<path fill="#FFFFFF" d="M275.922,35.646v5.58c0,1.404-0.066,2.941-0.367,4.545h7.652v-5.246h-6.684l-0.134-0.535h13.668
			l2.239-3.141l4.109,3.208c-0.267,0.367-0.734,0.468-1.637,0.468h-6.55v5.246h3.742l2.306-3.208l4.211,3.275
			c-0.268,0.367-0.735,0.468-1.638,0.468h-8.621v8.22c0,0.201-1.504,1.003-4.077,1.003h-0.936v-9.223h-7.753
			c-0.734,3.341-2.64,6.783-7.352,9.122l-0.2-0.233c2.874-4.11,3.074-9.424,3.074-13.969v-7.986l0.367,0.134v-8.12l5.915,0.468
			c-0.066,0.435-0.301,0.735-1.27,0.869v3.942h5.146v-6.816l6.048,0.567c-0.066,0.469-0.367,0.702-1.303,0.836v5.413h5.312v-5.279
			l6.049,0.468c-0.066,0.468-0.301,0.735-1.236,0.869v5.246c0,0.066-0.134,0.167-0.334,0.233l3.909,3.108
			c-0.267,0.367-0.701,0.468-1.637,0.468H275.922z M275.989,32.604c0,0.134-1.438,0.869-4.311,0.869l4.945,1.637h16.308l2.005-2.807
			c-1.304,0.401-2.54,0.401-3.743,0.401v-1.638h-15.204V32.604z"/>
	</g>
</g>
</svg>
