<?xml version="1.0" encoding="utf-8"?>
<!-- Generator: Adobe Illustrator 17.0.0, SVG Export Plug-In . SVG Version: 6.00 Build 0)  -->
<!DOCTYPE svg PUBLIC "-//W3C//DTD SVG 1.1//EN" "http://www.w3.org/Graphics/SVG/1.1/DTD/svg11.dtd">
<svg version="1.1" xmlns="http://www.w3.org/2000/svg" xmlns:xlink="http://www.w3.org/1999/xlink" x="0px" y="0px" width="320px"
	 height="320px" viewBox="0 0 320 320" enable-background="new 0 0 320 320" xml:space="preserve">
<g id="Layer_3">
	
		<text transform="matrix(1 0 0 1 60.2969 97.6489)" fill="#FFFFFF" font-family="'KozMinPro-Heavy-83pv-RKSJ-H'" font-size="84.5927" glyph-orientation-vertical="0" writing-mode="tb">黨版</text>
	
		<text transform="matrix(1 0 0 1 133.6069 255.418)" fill="#FFFFFF" font-family="'KozMinPro-Heavy-83pv-RKSJ-H'" font-size="84.5927">襲來</text>
	
		<text transform="matrix(1 0 0 1 19.2656 88.0454)" fill="#FFFFFF" font-family="'KozMinPro-Heavy-83pv-RKSJ-H'" font-size="39.3998">民進</text>
	
		<text transform="matrix(1 0 0 1 99.9033 255.209)" fill="#FFFFFF" font-family="'KozMinPro-Heavy-83pv-RKSJ-H'" font-size="96.3453">、</text>
</g>
<g id="Layer_2">
	<rect width="320" height="320"/>
</g>
<g id="Layer_1">
	<g>
		<path fill="#FFFFFF" d="M36.78,162.36c0.508,1.945,0.677,3.807,0.677,5.498c0,8.375-5.583,12.521-10.489,12.521
			c-3.384,0-6.683-1.861-6.683-5.245c0-2.791,2.199-4.821,4.822-5.752c4.229-0.593,9.475-3.215,10.574-7.106L36.78,162.36z
			 M90.667,106.189l9.728,9.306c-0.677,0.761-1.438,1.015-3.214,1.1c-3.214,2.453-8.628,6.175-12.351,8.206l-0.677-0.507
			c0.508-2.792,1.185-7.698,1.523-11.082H35.342c0.338,7.275-4.145,11.082-8.713,11.082c-2.96,0-5.837-1.607-5.837-4.653
			c0-2.538,2.03-4.399,4.399-5.245c3.468-0.846,7.444-3.722,7.698-7.529h1.1c0.677,1.777,1.015,3.468,1.269,4.991h6.852
			c-0.592-0.254-1.184-0.677-1.776-1.269c-0.592-3.045-2.284-6.598-4.314-8.713l0.508-0.508c9.982-0.084,13.366,2.961,13.366,5.922
			c0,1.861-1.438,3.722-3.384,4.568h7.36V99.675l14.973,1.438c-0.169,1.185-0.931,1.776-3.384,2.115v8.628h4.314
			c2.03-3.299,4.399-7.952,5.752-11.42l11.759,5.922c-0.254,0.592-0.846,0.846-1.692,0.846c-0.508,0-1.015,0-1.607-0.169
			c-2.961,1.607-7.444,3.384-11.505,4.822h12.436L90.667,106.189z M20.877,160.837h33.076v-5.668H29.505l-0.423-1.354h24.871v-5.499
			H42.702c0,0-1.776,3.638-10.997,3.638v-21.91l11.758,4.399h33.331l3.807-4.907c-4.229,2.115-9.052,2.115-10.997,2.115v-2.623
			H50.146c-0.423,1.1-4.399,3.553-9.221,3.553h-1.523v-18.103l11.251,4.314h18.272l3.722-4.907l10.744,7.106
			c-0.338,0.508-1.1,1.015-2.284,1.269v6.852c0,0.084-0.085,0.169-0.254,0.254l10.997,7.359c-0.423,0.508-1.269,1.185-2.622,1.438
			v9.39c-0.085,0.339-1.777,1.185-3.892,1.946l7.106,4.484c-0.423,0.677-1.015,1.015-2.03,1.1l9.39,5.922
			c-0.592,1.015-1.692,1.185-3.892,1.185H21.3L20.877,160.837z M42.702,146.964h11.251v-11.167H42.702V146.964z M43.971,137.32
			c6.768,0.761,9.051,3.13,9.051,5.245c0,2.03-2.115,3.807-4.314,3.807c-1.185,0-2.454-0.423-3.384-1.692
			c0.253-2.369-0.592-5.245-2.03-6.852L43.971,137.32z M45.24,163.968c8.206,3.299,10.997,7.021,10.997,10.066
			c0,3.215-3.215,5.499-6.429,5.499c-2.115,0-4.314-1.016-5.499-3.554c0.592-1.945,0.931-4.145,0.931-6.344
			c0-1.946-0.254-3.892-0.762-5.33L45.24,163.968z M50.146,127.676h19.457v-7.529H50.146V127.676z M59.283,163.714
			c12.351,1.269,16.412,5.922,16.412,9.897c0,3.215-2.792,6.006-6.006,6.006c-1.438,0-3.045-0.508-4.399-1.945
			c-0.677-4.737-3.215-10.236-6.514-13.45L59.283,163.714z M77.555,135.797H65.458v11.167h1.438
			c1.015-2.961,2.284-7.275,2.96-10.321l7.698,2.707V135.797z M65.458,148.317v5.499h12.858l2.961-3.384
			c-0.592,0.084-2.453,0.084-3.722,0.084v-2.199H65.458z M65.458,155.169v5.668h19.711l4.991-5.752
			c-0.507,0.084-1.015,0.084-1.607,0.084H65.458z M77.555,146.964v-5.668c-0.254,0-0.507-0.084-0.846-0.084
			c-1.945,1.776-5.075,3.976-7.698,5.752H77.555z M76.371,163.037c17.68-0.593,23.517,5.668,23.517,10.743
			c0,3.299-2.538,6.091-5.837,6.091c-1.1,0-2.369-0.338-3.553-1.016c-3.299-5.414-8.967-11.674-14.466-15.142L76.371,163.037z"/>
		<path fill="#FFFFFF" d="M89.06,207.955l9.982,8.629c-0.507,0.931-1.354,1.269-3.299,1.522c-2.03,9.136-5.245,17.85-10.574,25.463
			c4.568,4.653,10.066,8.121,15.988,10.997l-0.254,0.931c-4.737,0.677-8.629,3.977-10.659,9.306
			c-4.652-4.061-8.375-8.459-11.251-13.789c-5.076,5.076-11.42,9.391-19.457,12.773l-0.423-1.015
			c7.275-5.075,12.689-11.674,16.581-19.203c-2.623-7.359-4.23-16.411-5.161-28.255h-1.607c0,15.565-0.339,36.291-19.965,49.488
			l-0.761-0.592c9.136-13.789,9.898-31.216,9.898-47.627v-4.822c-0.677,0.169-1.523,0.254-2.538,0.254H35.004v14.381h3.976
			l4.145-5.414l11.082,7.783c-0.508,0.677-1.692,1.438-3.384,1.776v25.717c-0.084,0.931-5.16,3.638-9.136,3.638h-1.861V227.75
			h-4.822c-0.423,14.72-3.976,27.324-14.635,35.953l-0.846-0.592c4.145-10.744,4.906-23.18,4.906-37.561v-38.829l13.874,1.1v-2.961
			l13.789,1.27c-0.084,1.1-0.846,1.607-2.961,1.945v21.064l3.214-5.668l5.753,5.922v-22.079l12.435,4.313H85l5.583-7.274
			l10.066,7.444c-0.592,0.931-1.861,1.184-4.061,1.184H68.927v20.896h14.381L89.06,207.955z M38.303,188.498
			c-0.338,0.677-1.269,1.1-3.299,1.354v20.811h3.299V188.498z M71.887,215.314c1.354,8.375,3.892,15.059,7.191,20.557
			c2.453-6.514,4.061-13.45,5.075-20.557H71.887z"/>
	</g>
	<g>
		<path fill="#FFFFFF" d="M211.857,244.759c-0.339,0.593-0.847,0.931-1.861,0.931c-0.339,0-0.846-0.084-1.354-0.169
			c-3.638,0.931-8.544,1.522-13.366,1.861v0.084c6.768,2.284,14.466,3.384,21.825,3.977v1.015c-4.652,1.354-7.528,5.33-8.713,11.082
			c-13.789-4.483-23.94-11.082-29.439-24.617c-3.214,1.945-6.937,3.553-11.166,4.906v7.698c5.583-0.169,11.674-0.338,17.85-0.592
			v1.1c-6.853,2.538-17.088,5.583-32.823,9.644c-0.592,1.1-1.523,1.776-2.454,1.946l-5.414-11.675c2.623,0,6.43-0.084,11.082-0.169
			v-5.075c-6.345,1.184-13.197,1.945-20.303,2.368l-0.338-1.269c11.759-2.284,21.995-6.007,28.762-10.49h-27.409l-0.423-1.354
			h33.246v-5.583c-1.607,0.931-4.061,1.607-7.528,2.03c0-5.583-0.762-7.105-4.399-7.867v-1.016h4.314
			c0.507,0,0.507-0.254,0.507-2.622h-10.912v8.375c0,0.677-3.215,2.876-8.544,2.876h-1.861v-29.016l11.505,4.314h8.967l3.892-5.076
			h-29.101l-0.423-1.354h12.436v-0.084c-1.523-0.17-2.961-0.931-3.807-2.707c0.253-1.016,0.423-2.115,0.423-3.215
			s-0.169-2.199-0.508-3.046l0.423-0.169h-6.175l-0.423-1.354h12.943v-7.444l13.62,1.269c-0.169,0.931-0.762,1.438-2.622,1.692
			v4.483h1.945l4.568-5.752l8.544,5.921c-0.593,1.016-1.776,1.185-3.892,1.185h-10.744l10.067,2.453
			c-0.254,1.016-1.1,1.438-3.215,1.438c-2.114,1.522-5.329,3.638-8.121,5.329h5.16l4.229-4.737l8.121,4.991
			c-0.592,0.931-1.776,1.1-3.807,1.1h-9.221l10.574,7.444c-0.507,0.677-1.691,1.438-3.468,1.776v11.336
			c0,1.945-0.085,3.638-0.931,5.076l8.29,0.761c-0.677-1.354-0.846-3.384-0.846-6.429v-39.168l13.704,1.1
			c-0.169,1.016-0.762,1.607-2.876,1.946v2.961h10.235l4.738-5.753l9.136,5.922c-0.592,1.015-1.861,1.185-3.892,1.185H190.37v5.244
			h10.828l3.553-4.652l10.236,6.768c-0.339,0.508-1.1,1.015-2.284,1.269v3.384c-0.085,0.593-3.469,2.115-6.599,2.623l5.922,3.638
			c-0.593,0.93-1.776,1.1-3.723,1.1H190.37v4.229h10.997l3.553-4.061l7.021,4.314c-0.592,0.931-1.776,1.1-3.722,1.1h-17.85v4.314
			h10.997l3.553-4.061l7.106,4.314c-0.593,0.931-1.776,1.1-3.723,1.1H190.37v1.185c0,2.368,0.169,2.368,2.961,2.368h11.505
			c2.791,0,3.976,0,6.345-2.538h0.507l0.424,2.115c3.383,1.1,4.145,1.438,4.145,2.792c0,2.791-1.354,4.061-7.782,4.483l6.852,4.568
			c-0.592,1.015-1.691,1.184-3.976,1.184h-9.644L211.857,244.759z M159.239,201.023c0.338-2.622,0.761-6.429,0.931-9.221h-14.212
			c6.26,1.607,8.375,3.807,8.375,5.668c0,1.776-1.946,3.215-4.229,3.469v0.084H159.239z M162.453,208.807h-10.912v4.737h10.912
			V208.807z M151.541,219.55h10.912v-4.652h-10.912V219.55z M181.403,237.314l-1.016,0.677c2.707,3.215,6.345,5.753,10.49,7.614
			c3.214-2.369,6.768-5.753,8.798-8.291H181.403z M190.201,197.132c-1.016,0.677-5.16,1.776-8.798,1.776l9.052,3.385h11.42v-5.161
			H190.201z M203.397,231.646h-11.336c-4.483,0-7.359-0.169-9.221-0.761c-0.338,0.084-0.677,0.084-1.015,0.169v4.906h17.934
			L203.397,231.646z M201.367,208.553l2.707-3.13h-2.199v-1.776H190.37v4.906H201.367z"/>
		<path fill="#FFFFFF" d="M266.164,220.988c0.931,2.199,2.115,4.229,3.469,6.175c2.961-5.837,4.906-15.058,5.329-24.447
			l14.636,3.299c-0.339,1.1-1.016,1.776-3.215,1.945c-1.1,3.13-2.369,6.007-3.807,8.544c10.489,1.692,14.042,5.922,14.042,9.56
			c0,3.384-2.96,6.176-6.26,6.176c-1.607,0-3.215-0.593-4.652-2.115c-0.508-3.807-2.2-8.121-4.399-11.42
			c-2.876,4.398-6.345,7.782-10.405,10.151c7.19,9.221,18.272,15.48,29.524,18.188l-0.17,0.931
			c-4.483,1.185-7.951,5.075-9.39,10.913c-12.858-6.599-20.303-17.258-24.702-33.754v34.092c0,1.27-5.414,4.314-10.066,4.314h-2.369
			v-23.01c-8.459,7.698-20.049,14.635-32.907,18.611l-0.507-1.016c10.828-5.922,20.895-16.073,27.662-27.493
			c-0.762,0.338-1.691,0.508-2.622,0.508c-1.692,0-3.554-0.762-4.822-2.623v-0.677c0-2.368-0.423-4.991-1.1-7.275
			c-4.061,5.753-8.967,9.982-14.635,13.028l-0.931-0.677c5.16-6.345,9.39-17.85,10.997-30.116l14.212,3.977
			c-0.338,1.1-1.1,1.691-3.384,1.776c-1.269,3.299-2.707,6.345-4.314,9.052c6.261,1.776,9.137,4.313,9.897,6.683
			c0.931-1.945,1.777-3.892,2.453-5.922v-18.441h-32.399l-0.423-1.438h32.822v-14.889l15.65,1.438
			c-0.169,1.269-0.762,1.945-3.215,2.284v11.166h15.481l6.514-8.205l12.013,8.375c-0.593,1.015-1.777,1.269-4.23,1.269h-29.777
			V220.988z"/>
	</g>
	<g>
		<path fill="#FFFFFF" d="M56.536,81.033l-0.63,5.437c1.261,1.3,1.734,2.167,1.734,2.915s-0.749,2.403-3.31,2.403
			c-1.418,0-3.034-0.512-4.334-1.063C42.393,87.1,39.241,81.308,37.98,74.217h-7.052v10.401c3.151-0.158,6.737-0.394,10.361-0.63
			v0.434c-3.23,1.615-8.155,3.585-16.153,6.343c-0.275,0.512-0.749,0.828-1.221,0.946l-3.073-6.619
			c1.063-0.039,2.561-0.079,4.373-0.157V55.266l6.264,2.285h15.326l2.088-2.758l5.634,3.94c-0.236,0.315-0.709,0.669-1.537,0.827
			v7.21c0,0.039-1.536,1.418-5.792,1.418V66.14h-2.836c-0.079,0.473-0.354,0.709-1.458,0.867c0.04,2.324,0.197,4.531,0.591,6.58
			h5.752l2.994-3.822l5.477,3.9c-0.315,0.434-0.827,0.552-1.931,0.552H43.614c1.024,5.003,3.467,9.022,8.707,11.347
			c0.315,0.118,0.591,0.197,0.788,0.197c0.275,0,0.473-0.118,0.709-0.433c0.63-0.867,1.812-2.837,2.521-4.374L56.536,81.033z
			 M47.199,58.182H30.928v7.328h16.271V58.182z M30.928,73.586h6.934c-0.354-2.364-0.551-4.846-0.63-7.446h-6.304V73.586z"/>
		<path fill="#FFFFFF" d="M71.391,72.68c-0.354,0.394-0.945,0.709-2.088,0.906v9.416c2.718,2.679,5.318,3.034,12.686,3.034
			c4.334,0,10.204-0.04,15.129-0.158v0.434c-2.049,0.512-3.23,2.167-3.467,4.649H82.029c-7.604,0-10.598-1.261-13.159-7.368
			c-1.615,2.403-4.058,5.477-5.673,7.25c0,0.551-0.276,0.827-0.67,0.985l-2.797-5.91c1.143-0.354,2.679-0.906,4.294-1.497V72.483
			h-4.255l-0.157-0.709h3.782l2.561-3.428L71.391,72.68z M60.714,55.581c6.304,0.788,8.392,3.191,8.392,5.201
			c0,1.773-1.537,3.231-3.23,3.231c-0.828,0-1.694-0.315-2.443-1.143c-0.158-2.482-1.261-5.358-2.955-7.092L60.714,55.581z
			 M72.652,68.07c-1.143,0.946-2.364,1.773-3.625,2.482l-0.394-0.276c2.561-3.546,5.201-9.81,6.58-15.996l7.367,2.6
			c-0.197,0.473-0.63,0.788-1.694,0.749c-0.906,1.773-1.852,3.388-2.916,4.846l0.749,0.276h3.506c0.315-2.601,0.552-5.91,0.63-8.195
			l8.274,1.615c-0.119,0.512-0.473,0.788-1.537,0.788c-1.418,1.654-3.585,3.9-5.792,5.792h4.373l2.679-3.428l4.885,3.506
			c-0.276,0.434-0.867,0.552-1.891,0.552h-6.776v5.516h0.039l2.521-3.27l4.688,3.349c-0.315,0.434-0.867,0.552-1.891,0.552h-5.358
			v5.595h0.039l2.521-3.271l4.688,3.349c-0.315,0.433-0.867,0.551-1.891,0.551h-5.358v5.674h1.852l2.718-3.546l5.004,3.625
			c-0.276,0.433-0.867,0.551-1.891,0.551H78.167v1.537c0,0.394-1.655,1.576-4.491,1.576h-1.024V68.07z M81.674,63.382h-3.506v5.516
			h3.506V63.382z M81.674,75.123v-5.595h-3.506v5.595H81.674z M81.674,81.427v-5.674h-3.506v5.674H81.674z"/>
	</g>
	<g>
		<path fill="#FFFFFF" d="M103.276,241.528c14.163,1.83,24.279,7.996,24.279,15.415c0,4.624-3.565,7.322-7.226,7.322
			c-2.312,0-4.624-0.964-6.262-3.18c-0.674-5.974-4.143-14.548-11.272-18.69L103.276,241.528z"/>
	</g>
</g>
</svg>
