<?xml version="1.0" encoding="utf-8"?>
<!-- Generator: Adobe Illustrator 17.0.0, SVG Export Plug-In . SVG Version: 6.00 Build 0)  -->
<!DOCTYPE svg PUBLIC "-//W3C//DTD SVG 1.1//EN" "http://www.w3.org/Graphics/SVG/1.1/DTD/svg11.dtd">
<svg version="1.1" xmlns="http://www.w3.org/2000/svg" xmlns:xlink="http://www.w3.org/1999/xlink" x="0px" y="0px" width="320px"
	 height="320px" viewBox="0 0 320 320" enable-background="new 0 0 320 320" xml:space="preserve">
<g id="Layer_3">
	
		<text transform="matrix(1 0 0 1 148.1387 73.7325)" fill="#FFFFFF" font-family="'KozMinPro-Heavy-83pv-RKSJ-H'" font-size="51.6351">新國會</text>
	
		<text transform="matrix(1 0 0 1 258.6069 126.7347)" fill="#FFFFFF" font-family="'KozMinPro-Heavy-83pv-RKSJ-H'" font-size="84.5927" glyph-orientation-vertical="0" writing-mode="tb">降臨</text>
	
		<text transform="matrix(1 0 0 1 268.3701 102.209)" fill="#FFFFFF" font-family="'KozMinPro-Heavy-83pv-RKSJ-H'" font-size="96.3453">、</text>
</g>
<g id="Layer_2">
	<rect width="320" height="320"/>
</g>
<g id="Layer_4">
</g>
<g id="Layer_1">
	<g>
		<path fill="#FFFFFF" d="M192.235,43.681l6.713,5.318c-0.413,0.567-1.188,0.723-2.582,0.723h-2.479v27.006
			c-0.052,0.413-2.22,1.91-5.989,1.91h-1.343V49.722h-3.666v1.859c0,9.346-0.93,20.292-13.839,27.005l-0.464-0.516
			c6.506-7.591,7.125-17.247,7.125-26.696v-1.756c-0.413,0.413-1.136,0.517-2.271,0.517h-6.558
			c-0.052,0.413-0.361,0.723-1.291,0.878v6.3h1.549l2.84-4.079l5.164,4.183c-0.361,0.567-1.085,0.723-2.428,0.723h-7.125v3.201
			l0.052-0.052c6.299,1.136,8.416,3.563,8.416,5.68c0,1.859-1.755,3.46-3.614,3.46c-0.93,0-1.91-0.413-2.736-1.395
			c0.052-2.375-0.774-5.215-2.117-7.074v14.769c0,0.567-3.201,1.962-5.68,1.962h-1.394V68.053c-2.53,2.633-5.577,4.905-8.881,6.815
			l-0.465-0.671c3.666-4.286,6.455-10.431,8.003-16.059h-7.074l-0.206-0.826h8.623v-7.178h-8.933l-0.207-0.826h14.406
			c0.62-3.305,1.188-7.849,1.446-11.05l8.571,1.91c-0.155,0.62-0.62,0.93-1.962,0.93c-1.652,2.375-4.39,5.68-7.022,8.21h2.788
			l2.892-3.718l5.215,3.718v-15.49l7.436,2.271c3.099-2.014,6.248-4.647,7.952-6.558l7.487,5.938
			c-0.361,0.31-0.878,0.516-1.601,0.516c-0.517,0-1.137-0.103-1.859-0.31c-2.994,0.981-7.693,1.859-12.237,2.375v10.844h5.68
			L192.235,43.681z M150.411,38.052l-0.207-0.826h8.262V29.48l9.243,0.878c-0.104,0.723-0.568,1.084-2.014,1.291v5.576h0.826
			l2.891-4.079l5.319,4.183c-0.362,0.568-1.085,0.723-2.427,0.723H150.411z M154.128,38.465c5.009,2.324,6.712,4.957,6.712,7.074
			c0,2.169-1.807,3.718-3.614,3.718c-1.084,0-2.169-0.517-2.892-1.755c0.207-0.93,0.258-1.911,0.258-2.943
			c0-2.117-0.362-4.338-0.981-5.887L154.128,38.465z"/>
		<path fill="#FFFFFF" d="M242.941,30.462l6.867,5.06c-0.361,0.465-1.033,0.878-2.065,1.137v39.346c0,0.104-1.808,2.117-7.022,2.117
			v-3.976h-30.517v1.652c0,0.206-0.878,2.892-6.868,2.892V31.081l7.487,2.995h29.381L242.941,30.462z M210.204,73.319h30.517V34.902
			h-30.517V73.319z M211.03,62.114c2.581-0.206,8.571-1.032,14.51-1.91l0.103,0.619c-2.22,1.446-5.576,3.563-10.43,6.248
			c-0.259,0.671-0.724,1.085-1.291,1.239L211.03,62.114z M240.101,43.887c-0.361,0.62-1.084,0.723-2.375,0.723h-7.332
			c0.052,3.047,0.206,5.99,0.619,8.624c0.672-1.859,1.239-3.925,1.704-6.042l7.229,2.375c-0.259,0.62-0.724,0.981-2.117,0.93
			c-1.343,3.873-3.047,7.074-4.957,9.811c0.826,2.066,2.22,3.77,2.53,3.77c0.567,0,2.323-4.182,2.892-5.68l0.361,0.104l-0.774,7.022
			c0.878,1.652,1.342,2.84,1.342,3.718c0,1.549-1.652,2.169-2.736,2.169c-4.234,0-6.919-5.268-7.59-6.558
			c-3.099,2.891-6.713,4.905-10.792,6.402l-0.465-0.568c3.614-2.117,6.919-5.422,9.604-9.655c-1.085-3.202-1.756-6.816-2.117-10.688
			c-0.259,0.206-0.672,0.413-1.188,0.516v6.248c0,0.104-1.188,1.498-4.596,1.498V56.59h-2.117v1.601
			c0,0.052-0.568,1.497-4.441,1.497v-12.65l4.699,1.962h1.498l1.601-2.117l4.544,3.047c-0.155-1.704-0.259-3.512-0.311-5.319
			h-13.528l-0.206-0.826h13.684c-0.052-2.271-0.104-4.646-0.104-7.073l7.642,0.671c-0.052,0.671-0.465,0.981-1.858,1.188
			c-0.052,1.756-0.052,3.512-0.052,5.215h1.808l2.014-2.581c-0.207-0.155-0.413-0.361-0.568-0.568
			c0.104-1.291-0.31-2.788-1.084-3.614l0.361-0.31c4.389,0.103,5.887,1.394,5.887,2.633c0,0.981-0.878,1.911-1.963,2.272
			L240.101,43.887z M217.227,55.764h2.117v-5.938h-2.117V55.764z"/>
		<path fill="#FFFFFF" d="M252.029,49.98c8.468-5.112,16.678-13.942,19.828-20.913l9.914,3.149
			c-0.207,0.724-0.826,1.137-2.789,1.343c5.422,3.614,13.735,6.713,23.443,7.849v0.878c-2.893,1.085-4.131,4.286-4.596,7.126
			c-0.568-0.207-1.137-0.413-1.704-0.672c-0.31,0.259-0.774,0.517-1.395,0.62v8.882c0,0.103-1.808,1.497-6.661,1.497v-1.497h-21.945
			c0,0.412-0.723,1.032-1.445,1.445l6.352,2.427h11.979l2.634-3.46l7.178,4.957c-0.31,0.362-0.878,0.775-1.808,0.981v11.825
			c-0.052,0.464-3.614,2.014-6.196,2.014h-1.291v-3.047h-12.857v0.619c0,0.155-1.032,2.686-7.332,2.686V60.307
			c-1.239,0.362-1.962,0.362-3.77,0.362V47.708c-2.375,1.136-4.854,2.065-7.332,2.788L252.029,49.98z M287.605,47.14l1.602-2.065
			c-4.441-2.892-8.211-6.609-10.947-10.946c-2.943,3.614-8.417,8.106-14.975,11.722l3.512,1.29H287.605z M266.125,47.966v9.45h7.797
			v-9.45H266.125z M267.262,48.999c4.44,1.394,5.938,3.305,5.938,4.905c0,1.549-1.497,2.788-3.046,2.788
			c-0.93,0-1.859-0.413-2.479-1.445c0.103-0.465,0.154-0.981,0.154-1.55c0-1.601-0.413-3.253-1.032-4.44L267.262,48.999z
			 M276.607,42.699l2.736-3.718l5.112,3.821c-0.361,0.568-1.084,0.723-2.375,0.723h-13.064l-0.258-0.826H276.607z M283.526,62.94
			h-12.857v5.422h12.857V62.94z M270.669,74.559h12.857v-5.37h-12.857V74.559z M288.07,50.187v-2.221h-8.003v9.45h0.619
			c0.671-2.53,1.343-6.146,1.704-8.676L288.07,50.187z M287.864,51.478c-1.446,1.808-3.77,4.131-5.99,5.938h6.196v-5.938H287.864z"
			/>
	</g>
	<g>
		<path fill="#FFFFFF" d="M293.63,142.297c-0.507,0.931-1.354,1.185-3.299,1.354c-2.284,3.723-5.16,7.105-8.629,10.066
			c5.414,1.607,11.251,2.538,17.004,3.131v0.93c-4.314,1.354-7.021,4.991-8.206,10.405c-6.514-2.199-12.097-4.906-16.75-8.713
			c-6.937,4.061-15.227,7.19-24.701,9.221c3.553,4.737,3.553,8.121,3.553,9.897c0,8.121-3.723,13.958-14.381,14.889
			c0-6.768-1.438-8.713-4.652-9.644v21.825c0,0.846-3.469,3.638-9.306,3.638h-2.115v-78.504l12.604,4.652h3.299l5.668-6.175
			l10.236,10.405c-0.677,0.846-1.776,1.184-3.807,1.184c-2.961,4.737-8.798,13.451-12.943,18.696
			c4.738,2.453,8.46,5.244,10.998,8.205c8.121-3.299,15.058-7.867,20.472-13.45c-1.946-2.453-3.722-5.33-5.075-8.544
			c-4.061,3.891-8.883,7.274-14.297,9.559l-0.592-0.592c5.921-5.922,10.574-16.411,12.266-25.886l15.65,2.114
			c-0.254,0.931-0.846,1.354-3.131,1.523c-1.269,2.453-2.707,4.736-4.398,7.021h8.375l6.176-5.837L293.63,142.297z M233.568,182.817
			h4.821c2.792,0,3.13-3.384,3.13-5.244c0-6.176-1.522-12.604-5.837-17.85c1.015-5.499,2.453-16.496,3.215-22.926h-5.329V182.817z
			 M289.823,183.918l9.39,7.274c-0.676,0.931-1.86,1.185-4.061,1.185h-12.436v14.466c0,0.085-2.199,3.13-11.589,3.13v-17.596
			h-22.671l-0.339-1.354h8.036v-15.058h-3.215l-0.338-1.354h18.526v-8.798l14.128,1.184c-0.17,0.931-0.593,1.523-2.539,1.777v5.498
			l4.484-5.837l8.798,6.345c-0.593,1.016-1.861,1.185-3.976,1.185h-9.307v15.058h1.946L289.823,183.918z M267.998,140.858
			c-0.846,1.101-1.776,2.2-2.792,3.215c2.03,2.369,4.483,4.229,7.275,5.837c2.199-2.876,4.061-5.837,5.414-9.052H267.998z
			 M266.56,191.023h4.568v-15.058h-4.568V191.023z"/>
		<path fill="#FFFFFF" d="M286.862,263.435l3.3-4.314l9.136,6.345c-0.423,0.508-1.354,1.1-2.707,1.354v23.518
			c0,0.084-2.368,2.284-8.967,2.284v-5.245h-2.792v3.045c0,0.085-1.1,3.215-8.798,3.215v-27.747
			c-0.592,0.423-1.522,0.931-2.792,1.185v23.348c0,0.17-2.453,2.2-8.797,2.2v-5.753h-2.369v3.469c0,0.169-1.354,3.299-9.137,3.299
			v-11.42c-0.507,0.084-1.184,0.084-1.86,0.084h-20.388v6.007c0,0.761-3.045,3.13-8.121,3.13h-1.776v-72.498l11.082,4.146h7.952
			l5.583-8.206l10.067,8.375c-0.593,0.931-1.946,1.185-4.146,1.185h-7.614v15.143l2.792-3.638l9.39,7.105
			c-0.507,0.593-1.607,1.27-2.961,1.523v14.973l9.391,3.892h1.354l3.384-4.399l8.967,6.261v-5.668l9.137,3.807H286.862z
			 M234.075,224.437h-3.384v16.157h3.384V224.437z M230.691,241.947v18.611h12.098v-18.611H230.691z M230.691,261.912v19.033h3.299
			v-19.033H230.691z M247.272,273.671l5.667,5.414V263.35c-0.253,0.339-4.229,1.946-8.205,1.946h-1.1v14.55L247.272,273.671z
			 M289.062,216.738l10.489,8.206c-0.677,0.931-1.945,1.184-4.146,1.184H267.49c-1.607,2.115-3.299,4.314-5.244,6.261l8.459,3.214
			h8.375l4.229-5.498l10.405,7.359c-0.508,0.762-1.354,1.185-3.215,1.522v15.396c0,0.423-3.299,2.199-8.798,2.199h-1.945v-4.061
			h-9.897v1.777c0,0.676-3.131,2.876-8.375,2.876h-1.861v-22.249c-2.03,1.861-4.145,3.469-6.43,4.822l-1.015-0.592
			c3.638-6.684,6.514-17.173,7.698-25.887l15.48,3.892c-0.338,1.016-1.269,1.607-3.299,1.607c-1.016,1.945-2.199,3.976-3.638,6.006
			h14.889L289.062,216.738z M262.076,285.514h2.369v-20.726h-2.369V285.514z M279.757,236.956h-9.897v14.212h9.897V236.956z
			 M284.832,286.021h2.792v-21.233h-2.792V286.021z"/>
	</g>
	<g>
		<path fill="#FFFFFF" d="M271.743,88.528c14.163,1.83,24.279,7.996,24.279,15.415c0,4.624-3.565,7.322-7.227,7.322
			c-2.312,0-4.624-0.964-6.262-3.18c-0.675-5.974-4.143-14.548-11.272-18.69L271.743,88.528z"/>
	</g>
</g>
</svg>
