<?xml version="1.0" encoding="utf-8"?>
<!-- Generator: Adobe Illustrator 17.0.0, SVG Export Plug-In . SVG Version: 6.00 Build 0)  -->
<!DOCTYPE svg PUBLIC "-//W3C//DTD SVG 1.1//EN" "http://www.w3.org/Graphics/SVG/1.1/DTD/svg11.dtd">
<svg version="1.1" xmlns="http://www.w3.org/2000/svg" xmlns:xlink="http://www.w3.org/1999/xlink" x="0px" y="0px" width="200px"
	 height="200px" viewBox="0 0 200 200" enable-background="new 0 0 200 200" xml:space="preserve">
<g id="Layer_2">
</g>
<g id="Layer_1">
	<g>
		<rect x="27.535" y="104.197" fill="#B3B3B3" width="144.93" height="38.451"/>
		<polygon fill="#CCCCCC" points="128.979,77.577 67.398,77.577 51.097,93.845 145.28,93.845 		"/>
		<polygon fill="#CCCCCC" points="152.525,83.493 47.475,83.493 27.552,104.197 172.448,104.197 		"/>
		<rect x="51.197" y="93.845" fill="#B3B3B3" width="94.648" height="48.803"/>
		<rect x="68.944" y="82.014" fill="#999999" width="57.676" height="65.07"/>
		<rect x="74.859" y="126.38" fill="#B3B3B3" width="47.324" height="10.352"/>
		<rect x="74.859" y="126.38" fill="#B3B3B3" width="10.352" height="26.62"/>
		<rect x="110.352" y="126.38" fill="#B3B3B3" width="11.831" height="26.62"/>
		<polygon fill="#E6E6E6" points="114.49,118.986 81.888,118.986 74.643,126.38 121.734,126.38 		"/>
		<polygon fill="#E6E6E6" points="110.867,65.746 85.51,65.746 69.21,82.014 127.168,82.014 		"/>
		<g>
			<path d="M97.782,75.62c-0.552,0-1-0.448-1-1V48c0-0.552,0.448-1,1-1s1,0.448,1,1v26.62C98.782,75.172,98.334,75.62,97.782,75.62z
				"/>
		</g>
		<rect x="98.782" y="48" fill="#FF0000" width="8.873" height="7.394"/>
		<rect x="98.782" y="48" fill="#0000FF" width="3.697" height="3.697"/>
		<polygon fill="#808080" points="89.648,136.732 85.211,136.732 85.211,153 89.648,149.378 		"/>
		<polygon fill="#808080" points="110.352,153 107.394,149.378 107.394,136.732 110.352,136.732 		"/>
	</g>
</g>
</svg>
