<?xml version="1.0" encoding="utf-8"?>
<!-- Generator: Adobe Illustrator 17.0.0, SVG Export Plug-In . SVG Version: 6.00 Build 0)  -->
<!DOCTYPE svg PUBLIC "-//W3C//DTD SVG 1.1//EN" "http://www.w3.org/Graphics/SVG/1.1/DTD/svg11.dtd">
<svg version="1.1" xmlns="http://www.w3.org/2000/svg" xmlns:xlink="http://www.w3.org/1999/xlink" x="0px" y="0px" width="800px"
	 height="200px" viewBox="0 0 800 200" enable-background="new 0 0 800 200" xml:space="preserve">
<g id="Layer_2">
</g>
<g id="Layer_1">
	<rect x="360" fill="#C7B299" width="80" height="200"/>
	<rect x="360" fill="none" stroke="#736357" stroke-linejoin="round" stroke-miterlimit="10" width="20" height="20"/>
	
		<rect x="364.432" y="4.432" transform="matrix(0.7071 -0.7071 0.7071 0.7071 101.2994 264.5584)" fill="none" stroke="#998675" stroke-linejoin="round" stroke-miterlimit="10" width="11.137" height="11.137"/>
	
		<rect x="384.432" y="4.432" transform="matrix(0.7071 -0.7071 0.7071 0.7071 107.1573 278.7006)" fill="none" stroke="#998675" stroke-linejoin="round" stroke-miterlimit="10" width="11.137" height="11.137"/>
	
		<rect x="404.432" y="4.432" transform="matrix(0.7071 -0.7071 0.7071 0.7071 113.0152 292.8427)" fill="none" stroke="#998675" stroke-linejoin="round" stroke-miterlimit="10" width="11.137" height="11.137"/>
	<rect x="380" fill="none" stroke="#736357" stroke-linejoin="round" stroke-miterlimit="10" width="20" height="20"/>
	<rect x="400" fill="none" stroke="#736357" stroke-linejoin="round" stroke-miterlimit="10" width="20" height="20"/>
	<rect x="360" y="20" fill="none" stroke="#736357" stroke-linejoin="round" stroke-miterlimit="10" width="20" height="20"/>
	
		<rect x="364.432" y="24.432" transform="matrix(0.7071 -0.7071 0.7071 0.7071 87.1573 270.4163)" fill="none" stroke="#998675" stroke-linejoin="round" stroke-miterlimit="10" width="11.137" height="11.137"/>
	
		<rect x="384.432" y="24.432" transform="matrix(0.7071 -0.7071 0.7071 0.7071 93.0152 284.5584)" fill="none" stroke="#998675" stroke-linejoin="round" stroke-miterlimit="10" width="11.137" height="11.137"/>
	
		<rect x="404.432" y="24.432" transform="matrix(0.7071 -0.7071 0.7071 0.7071 98.873 298.7006)" fill="none" stroke="#998675" stroke-linejoin="round" stroke-miterlimit="10" width="11.137" height="11.137"/>
	<rect x="380" y="20" fill="none" stroke="#736357" stroke-linejoin="round" stroke-miterlimit="10" width="20" height="20"/>
	<rect x="400" y="20" fill="none" stroke="#736357" stroke-linejoin="round" stroke-miterlimit="10" width="20" height="20"/>
	<rect x="360" y="40" fill="none" stroke="#736357" stroke-linejoin="round" stroke-miterlimit="10" width="20" height="20"/>
	
		<rect x="364.432" y="44.432" transform="matrix(0.7071 -0.7071 0.7071 0.7071 73.0152 276.2742)" fill="none" stroke="#998675" stroke-linejoin="round" stroke-miterlimit="10" width="11.137" height="11.137"/>
	
		<rect x="384.432" y="44.432" transform="matrix(0.7071 -0.7071 0.7071 0.7071 78.873 290.4163)" fill="none" stroke="#998675" stroke-linejoin="round" stroke-miterlimit="10" width="11.137" height="11.137"/>
	
		<rect x="404.432" y="44.432" transform="matrix(0.7071 -0.7071 0.7071 0.7071 84.7309 304.5584)" fill="none" stroke="#998675" stroke-linejoin="round" stroke-miterlimit="10" width="11.137" height="11.137"/>
	<rect x="380" y="40" fill="none" stroke="#736357" stroke-linejoin="round" stroke-miterlimit="10" width="20" height="20"/>
	<rect x="400" y="40" fill="none" stroke="#736357" stroke-linejoin="round" stroke-miterlimit="10" width="20" height="20"/>
	<rect x="360" y="60" fill="none" stroke="#736357" stroke-linejoin="round" stroke-miterlimit="10" width="20" height="20"/>
	
		<rect x="364.432" y="64.432" transform="matrix(0.7071 -0.7071 0.7071 0.7071 58.873 282.132)" fill="none" stroke="#998675" stroke-linejoin="round" stroke-miterlimit="10" width="11.137" height="11.137"/>
	
		<rect x="384.432" y="64.432" transform="matrix(0.7071 -0.7071 0.7071 0.7071 64.7309 296.2742)" fill="none" stroke="#998675" stroke-linejoin="round" stroke-miterlimit="10" width="11.137" height="11.137"/>
	
		<rect x="404.432" y="64.432" transform="matrix(0.7071 -0.7071 0.7071 0.7071 70.5888 310.4163)" fill="none" stroke="#998675" stroke-linejoin="round" stroke-miterlimit="10" width="11.137" height="11.137"/>
	<rect x="380" y="60" fill="none" stroke="#736357" stroke-linejoin="round" stroke-miterlimit="10" width="20" height="20"/>
	<rect x="400" y="60" fill="none" stroke="#736357" stroke-linejoin="round" stroke-miterlimit="10" width="20" height="20"/>
	<rect x="360" y="80" fill="none" stroke="#736357" stroke-linejoin="round" stroke-miterlimit="10" width="20" height="20"/>
	
		<rect x="364.432" y="84.432" transform="matrix(0.7071 -0.7071 0.7071 0.7071 44.7309 287.9899)" fill="none" stroke="#998675" stroke-linejoin="round" stroke-miterlimit="10" width="11.137" height="11.137"/>
	
		<rect x="384.432" y="84.432" transform="matrix(0.7071 -0.7071 0.7071 0.7071 50.5887 302.132)" fill="none" stroke="#998675" stroke-linejoin="round" stroke-miterlimit="10" width="11.137" height="11.137"/>
	
		<rect x="404.432" y="84.432" transform="matrix(0.7071 -0.7071 0.7071 0.7071 56.4466 316.2742)" fill="none" stroke="#998675" stroke-linejoin="round" stroke-miterlimit="10" width="11.137" height="11.137"/>
	<rect x="380" y="80" fill="none" stroke="#736357" stroke-linejoin="round" stroke-miterlimit="10" width="20" height="20"/>
	<rect x="400" y="80" fill="none" stroke="#736357" stroke-linejoin="round" stroke-miterlimit="10" width="20" height="20"/>
	<rect x="360" y="100" fill="none" stroke="#736357" stroke-linejoin="round" stroke-miterlimit="10" width="20" height="20"/>
	
		<rect x="364.432" y="104.432" transform="matrix(0.7071 -0.7071 0.7071 0.7071 30.5887 293.8478)" fill="none" stroke="#998675" stroke-linejoin="round" stroke-miterlimit="10" width="11.137" height="11.137"/>
	
		<rect x="384.432" y="104.432" transform="matrix(0.7071 -0.7071 0.7071 0.7071 36.4466 307.9899)" fill="none" stroke="#998675" stroke-linejoin="round" stroke-miterlimit="10" width="11.137" height="11.137"/>
	
		<rect x="404.432" y="104.432" transform="matrix(0.7071 -0.7071 0.7071 0.7071 42.3045 322.132)" fill="none" stroke="#998675" stroke-linejoin="round" stroke-miterlimit="10" width="11.137" height="11.137"/>
	<rect x="380" y="100" fill="none" stroke="#736357" stroke-linejoin="round" stroke-miterlimit="10" width="20" height="20"/>
	<rect x="400" y="100" fill="none" stroke="#736357" stroke-linejoin="round" stroke-miterlimit="10" width="20" height="20"/>
	<rect x="360" y="120" fill="none" stroke="#736357" stroke-linejoin="round" stroke-miterlimit="10" width="20" height="20"/>
	
		<rect x="364.432" y="124.432" transform="matrix(0.7071 -0.7071 0.7071 0.7071 16.4466 299.7056)" fill="none" stroke="#998675" stroke-linejoin="round" stroke-miterlimit="10" width="11.137" height="11.137"/>
	
		<rect x="384.432" y="124.432" transform="matrix(0.7071 -0.7071 0.7071 0.7071 22.3045 313.8478)" fill="none" stroke="#998675" stroke-linejoin="round" stroke-miterlimit="10" width="11.137" height="11.137"/>
	
		<rect x="404.432" y="124.432" transform="matrix(0.7071 -0.7071 0.7071 0.7071 28.1623 327.9899)" fill="none" stroke="#998675" stroke-linejoin="round" stroke-miterlimit="10" width="11.137" height="11.137"/>
	<rect x="380" y="120" fill="none" stroke="#736357" stroke-linejoin="round" stroke-miterlimit="10" width="20" height="20"/>
	<rect x="400" y="120" fill="none" stroke="#736357" stroke-linejoin="round" stroke-miterlimit="10" width="20" height="20"/>
	<rect x="360" y="140" fill="none" stroke="#736357" stroke-linejoin="round" stroke-miterlimit="10" width="20" height="20"/>
	
		<rect x="364.432" y="144.432" transform="matrix(0.7071 -0.7071 0.7071 0.7071 2.3045 305.5635)" fill="none" stroke="#998675" stroke-linejoin="round" stroke-miterlimit="10" width="11.137" height="11.137"/>
	
		<rect x="384.432" y="144.432" transform="matrix(0.7071 -0.7071 0.7071 0.7071 8.1623 319.7056)" fill="none" stroke="#998675" stroke-linejoin="round" stroke-miterlimit="10" width="11.137" height="11.137"/>
	
		<rect x="404.432" y="144.432" transform="matrix(0.7071 -0.7071 0.7071 0.7071 14.0202 333.8478)" fill="none" stroke="#998675" stroke-linejoin="round" stroke-miterlimit="10" width="11.137" height="11.137"/>
	<rect x="380" y="140" fill="none" stroke="#736357" stroke-linejoin="round" stroke-miterlimit="10" width="20" height="20"/>
	<rect x="400" y="140" fill="none" stroke="#736357" stroke-linejoin="round" stroke-miterlimit="10" width="20" height="20"/>
	
		<rect x="424.432" y="4.432" transform="matrix(0.7071 -0.7071 0.7071 0.7071 118.873 306.9849)" fill="none" stroke="#998675" stroke-linejoin="round" stroke-miterlimit="10" width="11.137" height="11.137"/>
	<rect x="420" fill="none" stroke="#736357" stroke-linejoin="round" stroke-miterlimit="10" width="20" height="20"/>
	
		<rect x="424.432" y="24.432" transform="matrix(0.7071 -0.7071 0.7071 0.7071 104.7309 312.8427)" fill="none" stroke="#998675" stroke-linejoin="round" stroke-miterlimit="10" width="11.137" height="11.137"/>
	<rect x="420" y="20" fill="none" stroke="#736357" stroke-linejoin="round" stroke-miterlimit="10" width="20" height="20"/>
	
		<rect x="424.432" y="44.432" transform="matrix(0.7071 -0.7071 0.7071 0.7071 90.5888 318.7006)" fill="none" stroke="#998675" stroke-linejoin="round" stroke-miterlimit="10" width="11.137" height="11.137"/>
	<rect x="420" y="40" fill="none" stroke="#736357" stroke-linejoin="round" stroke-miterlimit="10" width="20" height="20"/>
	
		<rect x="424.432" y="64.432" transform="matrix(0.7071 -0.7071 0.7071 0.7071 76.4466 324.5584)" fill="none" stroke="#998675" stroke-linejoin="round" stroke-miterlimit="10" width="11.137" height="11.137"/>
	<rect x="420" y="60" fill="none" stroke="#736357" stroke-linejoin="round" stroke-miterlimit="10" width="20" height="20"/>
	
		<rect x="424.432" y="84.432" transform="matrix(0.7071 -0.7071 0.7071 0.7071 62.3045 330.4163)" fill="none" stroke="#998675" stroke-linejoin="round" stroke-miterlimit="10" width="11.137" height="11.137"/>
	<rect x="420" y="80" fill="none" stroke="#736357" stroke-linejoin="round" stroke-miterlimit="10" width="20" height="20"/>
	
		<rect x="424.432" y="104.432" transform="matrix(0.7071 -0.7071 0.7071 0.7071 48.1623 336.2742)" fill="none" stroke="#998675" stroke-linejoin="round" stroke-miterlimit="10" width="11.137" height="11.137"/>
	<rect x="420" y="100" fill="none" stroke="#736357" stroke-linejoin="round" stroke-miterlimit="10" width="20" height="20"/>
	
		<rect x="424.432" y="124.432" transform="matrix(0.7071 -0.7071 0.7071 0.7071 34.0202 342.132)" fill="none" stroke="#998675" stroke-linejoin="round" stroke-miterlimit="10" width="11.137" height="11.137"/>
	<rect x="420" y="120" fill="none" stroke="#736357" stroke-linejoin="round" stroke-miterlimit="10" width="20" height="20"/>
	
		<rect x="424.432" y="144.432" transform="matrix(0.7071 -0.7071 0.7071 0.7071 19.8781 347.9899)" fill="none" stroke="#998675" stroke-linejoin="round" stroke-miterlimit="10" width="11.137" height="11.137"/>
	<rect x="420" y="140" fill="none" stroke="#736357" stroke-linejoin="round" stroke-miterlimit="10" width="20" height="20"/>
	<rect x="360" y="160" fill="none" stroke="#736357" stroke-linejoin="round" stroke-miterlimit="10" width="20" height="20"/>
	
		<rect x="364.432" y="164.432" transform="matrix(0.7071 -0.7071 0.7071 0.7071 -11.8377 311.4214)" fill="none" stroke="#998675" stroke-linejoin="round" stroke-miterlimit="10" width="11.137" height="11.137"/>
	
		<rect x="384.432" y="164.432" transform="matrix(0.7071 -0.7071 0.7071 0.7071 -5.9798 325.5635)" fill="none" stroke="#998675" stroke-linejoin="round" stroke-miterlimit="10" width="11.137" height="11.137"/>
	
		<rect x="404.432" y="164.432" transform="matrix(0.7071 -0.7071 0.7071 0.7071 -0.1219 339.7056)" fill="none" stroke="#998675" stroke-linejoin="round" stroke-miterlimit="10" width="11.137" height="11.137"/>
	<rect x="380" y="160" fill="none" stroke="#736357" stroke-linejoin="round" stroke-miterlimit="10" width="20" height="20"/>
	<rect x="400" y="160" fill="none" stroke="#736357" stroke-linejoin="round" stroke-miterlimit="10" width="20" height="20"/>
	<rect x="360" y="180" fill="none" stroke="#736357" stroke-linejoin="round" stroke-miterlimit="10" width="20" height="20"/>
	
		<rect x="364.432" y="184.432" transform="matrix(0.7071 -0.7071 0.7071 0.7071 -25.9798 317.2792)" fill="none" stroke="#998675" stroke-linejoin="round" stroke-miterlimit="10" width="11.137" height="11.137"/>
	
		<rect x="384.432" y="184.432" transform="matrix(0.7071 -0.7071 0.7071 0.7071 -20.1219 331.4214)" fill="none" stroke="#998675" stroke-linejoin="round" stroke-miterlimit="10" width="11.137" height="11.137"/>
	
		<rect x="404.432" y="184.432" transform="matrix(0.7071 -0.7071 0.7071 0.7071 -14.2641 345.5635)" fill="none" stroke="#998675" stroke-linejoin="round" stroke-miterlimit="10" width="11.137" height="11.137"/>
	<rect x="380" y="180" fill="none" stroke="#736357" stroke-linejoin="round" stroke-miterlimit="10" width="20" height="20"/>
	<rect x="400" y="180" fill="none" stroke="#736357" stroke-linejoin="round" stroke-miterlimit="10" width="20" height="20"/>
	
		<rect x="424.432" y="164.432" transform="matrix(0.7071 -0.7071 0.7071 0.7071 5.7359 353.8478)" fill="none" stroke="#998675" stroke-linejoin="round" stroke-miterlimit="10" width="11.137" height="11.137"/>
	<rect x="420" y="160" fill="none" stroke="#736357" stroke-linejoin="round" stroke-miterlimit="10" width="20" height="20"/>
	
		<rect x="424.432" y="184.432" transform="matrix(0.7071 -0.7071 0.7071 0.7071 -8.4062 359.7056)" fill="none" stroke="#998675" stroke-linejoin="round" stroke-miterlimit="10" width="11.137" height="11.137"/>
	<rect x="420" y="180" fill="none" stroke="#736357" stroke-linejoin="round" stroke-miterlimit="10" width="20" height="20"/>
</g>
</svg>
