<?xml version="1.0" encoding="utf-8"?>
<!-- Generator: Adobe Illustrator 17.0.0, SVG Export Plug-In . SVG Version: 6.00 Build 0)  -->
<!DOCTYPE svg PUBLIC "-//W3C//DTD SVG 1.1//EN" "http://www.w3.org/Graphics/SVG/1.1/DTD/svg11.dtd">
<svg version="1.1" xmlns="http://www.w3.org/2000/svg" xmlns:xlink="http://www.w3.org/1999/xlink" x="0px" y="0px" width="800px"
	 height="200px" viewBox="0 0 800 200" enable-background="new 0 0 800 200" xml:space="preserve">
<g id="Layer_2">
</g>
<g id="Layer_1">
	<rect x="360" fill="#8CC63F" width="80" height="200"/>
	<g>
		<polyline fill="none" stroke="#39B54A" stroke-linecap="round" stroke-linejoin="round" stroke-miterlimit="10" points="
			389.646,26.961 392.234,24.72 394.823,26.961 		"/>
		<polyline fill="none" stroke="#39B54A" stroke-linecap="round" stroke-linejoin="round" stroke-miterlimit="10" points="
			394.823,26.961 397.411,24.72 400,26.961 		"/>
		<polyline fill="none" stroke="#39B54A" stroke-linecap="round" stroke-linejoin="round" stroke-miterlimit="10" points="
			400,26.961 402.589,24.72 405.177,26.961 		"/>
		<polyline fill="none" stroke="#39B54A" stroke-linecap="round" stroke-linejoin="round" stroke-miterlimit="10" points="
			405.177,26.961 407.766,24.72 410.354,26.961 		"/>
	</g>
	<g>
		<polyline fill="none" stroke="#39B54A" stroke-linecap="round" stroke-linejoin="round" stroke-miterlimit="10" points="
			389.646,76.401 392.234,74.159 394.823,76.401 		"/>
		<polyline fill="none" stroke="#39B54A" stroke-linecap="round" stroke-linejoin="round" stroke-miterlimit="10" points="
			394.823,76.401 397.411,74.159 400,76.401 		"/>
		<polyline fill="none" stroke="#39B54A" stroke-linecap="round" stroke-linejoin="round" stroke-miterlimit="10" points="
			400,76.401 402.589,74.159 405.177,76.401 		"/>
		<polyline fill="none" stroke="#39B54A" stroke-linecap="round" stroke-linejoin="round" stroke-miterlimit="10" points="
			405.177,76.401 407.766,74.159 410.354,76.401 		"/>
	</g>
	<g>
		<polyline fill="none" stroke="#39B54A" stroke-linecap="round" stroke-linejoin="round" stroke-miterlimit="10" points="
			389.646,150.56 392.234,148.319 394.823,150.56 		"/>
		<polyline fill="none" stroke="#39B54A" stroke-linecap="round" stroke-linejoin="round" stroke-miterlimit="10" points="
			394.823,150.56 397.411,148.319 400,150.56 		"/>
		<polyline fill="none" stroke="#39B54A" stroke-linecap="round" stroke-linejoin="round" stroke-miterlimit="10" points="
			400,150.56 402.589,148.319 405.177,150.56 		"/>
		<polyline fill="none" stroke="#39B54A" stroke-linecap="round" stroke-linejoin="round" stroke-miterlimit="10" points="
			405.177,150.56 407.766,148.319 410.354,150.56 		"/>
	</g>
	<g>
		<polyline fill="none" stroke="#39B54A" stroke-linecap="round" stroke-linejoin="round" stroke-miterlimit="10" points="
			389.646,51.681 392.234,49.44 394.823,51.681 		"/>
		<polyline fill="none" stroke="#39B54A" stroke-linecap="round" stroke-linejoin="round" stroke-miterlimit="10" points="
			394.823,51.681 397.411,49.44 400,51.681 		"/>
		<polyline fill="none" stroke="#39B54A" stroke-linecap="round" stroke-linejoin="round" stroke-miterlimit="10" points="
			400,51.681 402.589,49.44 405.177,51.681 		"/>
		<polyline fill="none" stroke="#39B54A" stroke-linecap="round" stroke-linejoin="round" stroke-miterlimit="10" points="
			405.177,51.681 407.766,49.44 410.354,51.681 		"/>
	</g>
	<g>
		<polyline fill="none" stroke="#39B54A" stroke-linecap="round" stroke-linejoin="round" stroke-miterlimit="10" points="
			389.646,101.121 392.234,98.879 394.823,101.121 		"/>
		<polyline fill="none" stroke="#39B54A" stroke-linecap="round" stroke-linejoin="round" stroke-miterlimit="10" points="
			394.823,101.121 397.411,98.879 400,101.121 		"/>
		<polyline fill="none" stroke="#39B54A" stroke-linecap="round" stroke-linejoin="round" stroke-miterlimit="10" points="
			400,101.121 402.589,98.879 405.177,101.121 		"/>
		<polyline fill="none" stroke="#39B54A" stroke-linecap="round" stroke-linejoin="round" stroke-miterlimit="10" points="
			405.177,101.121 407.766,98.879 410.354,101.121 		"/>
	</g>
	<g>
		<polyline fill="none" stroke="#39B54A" stroke-linecap="round" stroke-linejoin="round" stroke-miterlimit="10" points="
			389.646,175.28 392.234,173.038 394.823,175.28 		"/>
		<polyline fill="none" stroke="#39B54A" stroke-linecap="round" stroke-linejoin="round" stroke-miterlimit="10" points="
			394.823,175.28 397.411,173.038 400,175.28 		"/>
		<polyline fill="none" stroke="#39B54A" stroke-linecap="round" stroke-linejoin="round" stroke-miterlimit="10" points="
			400,175.28 402.589,173.038 405.177,175.28 		"/>
		<polyline fill="none" stroke="#39B54A" stroke-linecap="round" stroke-linejoin="round" stroke-miterlimit="10" points="
			405.177,175.28 407.766,173.038 410.354,175.28 		"/>
	</g>
	<g>
		<polyline fill="none" stroke="#39B54A" stroke-linecap="round" stroke-linejoin="round" stroke-miterlimit="10" points="
			389.646,2.242 392.234,0 394.823,2.242 		"/>
		<polyline fill="none" stroke="#39B54A" stroke-linecap="round" stroke-linejoin="round" stroke-miterlimit="10" points="
			394.823,2.242 397.411,0 400,2.242 		"/>
		<polyline fill="none" stroke="#39B54A" stroke-linecap="round" stroke-linejoin="round" stroke-miterlimit="10" points="
			400,2.242 402.589,0 405.177,2.242 		"/>
		<polyline fill="none" stroke="#39B54A" stroke-linecap="round" stroke-linejoin="round" stroke-miterlimit="10" points="
			405.177,2.242 407.766,0 410.354,2.242 		"/>
	</g>
	<g>
		<polyline fill="none" stroke="#39B54A" stroke-linecap="round" stroke-linejoin="round" stroke-miterlimit="10" points="
			389.646,125.841 392.234,123.599 394.823,125.841 		"/>
		<polyline fill="none" stroke="#39B54A" stroke-linecap="round" stroke-linejoin="round" stroke-miterlimit="10" points="
			394.823,125.841 397.411,123.599 400,125.841 		"/>
		<polyline fill="none" stroke="#39B54A" stroke-linecap="round" stroke-linejoin="round" stroke-miterlimit="10" points="
			400,125.841 402.589,123.599 405.177,125.841 		"/>
		<polyline fill="none" stroke="#39B54A" stroke-linecap="round" stroke-linejoin="round" stroke-miterlimit="10" points="
			405.177,125.841 407.766,123.599 410.354,125.841 		"/>
	</g>
	<g>
		<polyline fill="none" stroke="#39B54A" stroke-linecap="round" stroke-linejoin="round" stroke-miterlimit="10" points="
			389.646,200 392.234,197.758 394.823,200 		"/>
		<polyline fill="none" stroke="#39B54A" stroke-linecap="round" stroke-linejoin="round" stroke-miterlimit="10" points="
			394.823,200 397.411,197.758 400,200 		"/>
		<polyline fill="none" stroke="#39B54A" stroke-linecap="round" stroke-linejoin="round" stroke-miterlimit="10" points="400,200 
			402.589,197.758 405.177,200 		"/>
		<polyline fill="none" stroke="#39B54A" stroke-linecap="round" stroke-linejoin="round" stroke-miterlimit="10" points="
			405.177,200 407.766,197.758 410.354,200 		"/>
	</g>
</g>
</svg>
